<svg xmlns:dc="http://purl.org/dc/elements/1.1/" xmlns:cc="http://creativecommons.org/ns#" xmlns:rdf="http://www.w3.org/1999/02/22-rdf-syntax-ns#" xmlns:svg="http://www.w3.org/2000/svg" xmlns="http://www.w3.org/2000/svg" xmlns:sodipodi="http://sodipodi.sourceforge.net/DTD/sodipodi-0.dtd" xmlns:inkscape="http://www.inkscape.org/namespaces/inkscape" version="1.1" id="svg10" xml:space="preserve" sodipodi:docname="NovusLogo.svg" inkscape:version="1.0.1 (3bc2e813f5, 2020-09-07)" viewBox="179.04 688.35 171.73 14.57"><metadata id="metadata16"><rdf:RDF><cc:Work rdf:about=""><dc:format>image/svg+xml</dc:format><dc:type rdf:resource="http://purl.org/dc/dcmitype/StillImage"/><dc:title/></cc:Work></rdf:RDF></metadata><defs id="defs14"><clipPath clipPathUnits="userSpaceOnUse" id="clipPath60"><path d="m 164.63428,704.65088 h 19.61473 v -7.74561 h -19.61473 z" id="path58"/></clipPath><clipPath clipPathUnits="userSpaceOnUse" id="clipPath78"><path d="m 167.55371,698.82178 h 0.22705 v -0.25 h -0.22705 z" id="path76"/></clipPath></defs><sodipodi:namedview pagecolor="#ffffff" bordercolor="#666666" borderopacity="1" objecttolerance="10" gridtolerance="10" guidetolerance="10" inkscape:pageopacity="0" inkscape:pageshadow="2" inkscape:window-width="1920" inkscape:window-height="1121" id="namedview12" showgrid="false" inkscape:zoom="6.0935966" inkscape:cx="264.34609" inkscape:cy="686.27144" inkscape:window-x="462" inkscape:window-y="1791" inkscape:window-maximized="1" inkscape:current-layer="g18" inkscape:document-rotation="0"/><g id="g18" inkscape:groupmode="layer" inkscape:label="SK22 RED logo  lansing REV B" transform="matrix(1.3333333,0,0,-1.3333333,0,1632)"><path d="m 194.76465,699.19189 c 0,0 0.20508,-0.007 0.20508,-0.007 0,0 0.53759,-0.0205 0.53759,-0.0205 0,0 0.75293,-0.0283 0.75293,-0.0283 0,0 0.85108,-0.0317 0.85108,-0.0317 0,0 0.83398,-0.0317 0.83398,-0.0317 0,0 0.69922,-0.0269 0.69922,-0.0269 0,0 0.44776,-0.0166 0.44776,-0.0166 0,0 0.12158,-0.003 0.12158,-0.003 0,0 0.31836,0.0102 0.31836,0.0102 0,0 0.61377,0.0191 0.61377,0.0191 0,0 0.79199,0.0254 0.79199,0.0254 0,0 0.85449,0.0269 0.85449,0.0269 0,0 0.80078,0.0254 0.80078,0.0254 0,0 0.63086,0.0195 0.63086,0.0195 0,0 0.3457,0.0107 0.3457,0.0107 0,0 0.12305,0.15283 0.12305,0.15283 0,0 0.47852,0.7998 0.47852,0.7998 0,0 0.77343,1.29102 0.77343,1.29102 0,0 0.93653,1.5625 0.93653,1.5625 0,0 0.96582,1.61328 0.96582,1.61328 0,0 0.86523,1.44336 0.86523,1.44336 0,0 0.63135,1.05371 0.63135,1.05371 0,0 0.26563,0.44336 0.26563,0.44336 0,0 0.98339,0.002 0.98339,0.002 0,0 2.88037,0 2.88037,0 0,0 4.13282,0 4.13282,0 0,0 4.73486,0 4.73486,0 0,0 4.68457,0 4.68457,0 0,0 3.98242,0 3.98242,0 0,0 2.6294,0 2.6294,0 0,0 0.69189,-0.005 0.69189,-0.005 0,0 4.9e-4,-0.14355 4.9e-4,-0.14355 0,0 4.9e-4,-0.29395 4.9e-4,-0.29395 0,0 4.9e-4,-0.38623 4.9e-4,-0.38623 0,0 0.001,-0.42187 0.001,-0.42187 0,0 9.8e-4,-0.39942 9.8e-4,-0.39942 0,0 9.7e-4,-0.32031 9.7e-4,-0.32031 0,0 0,-0.18359 0,-0.18359 0,0 -0.30859,-0.0234 -0.30859,-0.0234 0,0 -1.98096,-10e-4 -1.98096,-10e-4 0,0 -3.32031,-0.004 -3.32031,-0.004 0,0 -4.0791,-0.005 -4.0791,-0.005 0,0 -4.2583,-0.005 -4.2583,-0.005 0,0 -3.85547,-0.004 -3.85547,-0.004 0,0 -2.87402,-0.003 -2.87402,-0.003 0,0 -1.31153,-10e-4 -1.31153,-10e-4 0,0 -0.14892,-0.21191 -0.14892,-0.21191 0,0 -0.40967,-0.7041 -0.40967,-0.7041 0,0 -0.60303,-1.03711 -0.60303,-1.03711 0,0 -0.6997,-1.20264 -0.6997,-1.20264 0,0 -0.69874,-1.20312 -0.69874,-1.20312 0,0 -0.60351,-1.03662 -0.60351,-1.03662 0,0 -0.40869,-0.70362 -0.40869,-0.70362 0,0 -0.18555,-0.29101 -0.18555,-0.29101 0,0 -0.41601,-0.47412 -0.41601,-0.47412 0,0 -0.43604,-0.40967 -0.43604,-0.40967 0,0 -0.45703,-0.3457 -0.45703,-0.3457 0,0 -0.47998,-0.28272 -0.47998,-0.28272 0,0 -0.50342,-0.22119 -0.50342,-0.22119 0,0 -0.52783,-0.15918 -0.52783,-0.15918 0,0 -0.55225,-0.0982 -0.55225,-0.0982 0,0 -0.37353,-0.0298 -0.37353,-0.0298 0,0 -0.40528,-0.002 -0.40528,-0.002 0,0 -0.67627,-0.002 -0.67627,-0.002 0,0 -0.833,-10e-4 -0.833,-10e-4 0,0 -0.87598,-10e-4 -0.87598,-10e-4 0,0 -0.80713,-10e-4 -0.80713,-10e-4 0,0 -0.62451,-4.9e-4 -0.62451,-4.9e-4 0,0 -0.32764,0 -0.32764,0 0,0 -0.17627,0 -0.17627,0 0,0 -0.50244,0 -0.50244,0 0,0 -0.73682,9.8e-4 -0.73682,9.8e-4 0,0 -0.85888,9.8e-4 -0.85888,9.8e-4 0,0 -0.86768,10e-4 -0.86768,10e-4 0,0 -0.7622,0.001 -0.7622,0.001 0,0 -0.54541,0.002 -0.54541,0.002 0,0 -0.23829,0.003 -0.23829,0.003 0,0 -0.34863,0.0308 -0.34863,0.0308 0,0 -0.33691,0.0522 -0.33691,0.0522 0,0 -0.32617,0.0718 -0.32617,0.0718 0,0 -0.31495,0.0918 -0.31495,0.0918 0,0 -0.3042,0.11181 -0.3042,0.11181 0,0 -0.29296,0.13282 -0.29296,0.13282 0,0 -0.28418,0.15283 -0.28418,0.15283 0,0 -0.25537,0.16064 -0.25537,0.16064 0,0 -0.22608,0.16065 -0.22608,0.16065 0,0 -0.22803,0.18164 -0.22803,0.18164 0,0 -0.22998,0.20312 -0.22998,0.20312 0,0 -0.23193,0.22559 -0.23193,0.22559 0,0 -0.23438,0.24609 -0.23438,0.24609 0,0 -0.23535,0.26807 -0.23535,0.26807 0,0 -0.23779,0.28955 -0.23779,0.28955 0,0 -0.1499,0.22998 -0.1499,0.22998 0,0 -0.33887,0.59961 -0.33887,0.59961 0,0 -0.5293,0.93701 -0.5293,0.93701 0,0 -0.63183,1.11719 -0.63183,1.11719 0,0 -0.64502,1.1416 -0.64502,1.1416 0,0 -0.57031,1.00928 -0.57031,1.00928 0,0 -0.40674,0.72021 -0.40674,0.72021 0,0 -0.15576,0.2749 -0.15576,0.2749 0,0 2.8413,2.15772 2.8413,2.15772" style="fill:#000000;fill-opacity:1;fill-rule:evenodd;stroke:none" id="path36"/><path d="m 194.76465,699.19189 c 0,0 0.20508,-0.007 0.20508,-0.007 0,0 0.53759,-0.0205 0.53759,-0.0205 0,0 0.75293,-0.0283 0.75293,-0.0283 0,0 0.85108,-0.0317 0.85108,-0.0317 0,0 0.83398,-0.0317 0.83398,-0.0317 0,0 0.69922,-0.0269 0.69922,-0.0269 0,0 0.44776,-0.0166 0.44776,-0.0166 0,0 0.12158,-0.003 0.12158,-0.003 0,0 0.31836,0.0102 0.31836,0.0102 0,0 0.61377,0.0191 0.61377,0.0191 0,0 0.79199,0.0254 0.79199,0.0254 0,0 0.85449,0.0269 0.85449,0.0269 0,0 0.80078,0.0254 0.80078,0.0254 0,0 0.63086,0.0195 0.63086,0.0195 0,0 0.3457,0.0107 0.3457,0.0107 0,0 0.12305,0.15283 0.12305,0.15283 0,0 0.47852,0.7998 0.47852,0.7998 0,0 0.77343,1.29102 0.77343,1.29102 0,0 0.93653,1.5625 0.93653,1.5625 0,0 0.96582,1.61328 0.96582,1.61328 0,0 0.86523,1.44336 0.86523,1.44336 0,0 0.63135,1.05371 0.63135,1.05371 0,0 0.26563,0.44336 0.26563,0.44336 0,0 0.98339,0.002 0.98339,0.002 0,0 2.88037,0 2.88037,0 0,0 4.13282,0 4.13282,0 0,0 4.73486,0 4.73486,0 0,0 4.68457,0 4.68457,0 0,0 3.98242,0 3.98242,0 0,0 2.6294,0 2.6294,0 0,0 0.69189,-0.005 0.69189,-0.005 0,0 4.9e-4,-0.14355 4.9e-4,-0.14355 0,0 4.9e-4,-0.29395 4.9e-4,-0.29395 0,0 4.9e-4,-0.38623 4.9e-4,-0.38623 0,0 0.001,-0.42187 0.001,-0.42187 0,0 9.8e-4,-0.39942 9.8e-4,-0.39942 0,0 9.7e-4,-0.32031 9.7e-4,-0.32031 0,0 0,-0.18359 0,-0.18359 0,0 -0.30859,-0.0234 -0.30859,-0.0234 0,0 -1.98096,-10e-4 -1.98096,-10e-4 0,0 -3.32031,-0.004 -3.32031,-0.004 0,0 -4.0791,-0.005 -4.0791,-0.005 0,0 -4.2583,-0.005 -4.2583,-0.005 0,0 -3.85547,-0.004 -3.85547,-0.004 0,0 -2.87402,-0.003 -2.87402,-0.003 0,0 -1.31153,-10e-4 -1.31153,-10e-4 0,0 -0.14892,-0.21191 -0.14892,-0.21191 0,0 -0.40967,-0.7041 -0.40967,-0.7041 0,0 -0.60303,-1.03711 -0.60303,-1.03711 0,0 -0.6997,-1.20264 -0.6997,-1.20264 0,0 -0.69874,-1.20312 -0.69874,-1.20312 0,0 -0.60351,-1.03662 -0.60351,-1.03662 0,0 -0.40869,-0.70362 -0.40869,-0.70362 0,0 -0.18555,-0.29101 -0.18555,-0.29101 0,0 -0.41601,-0.47412 -0.41601,-0.47412 0,0 -0.43604,-0.40967 -0.43604,-0.40967 0,0 -0.45703,-0.3457 -0.45703,-0.3457 0,0 -0.47998,-0.28272 -0.47998,-0.28272 0,0 -0.50342,-0.22119 -0.50342,-0.22119 0,0 -0.52783,-0.15918 -0.52783,-0.15918 0,0 -0.55225,-0.0982 -0.55225,-0.0982 0,0 -0.37353,-0.0298 -0.37353,-0.0298 0,0 -0.40528,-0.002 -0.40528,-0.002 0,0 -0.67627,-0.002 -0.67627,-0.002 0,0 -0.833,-10e-4 -0.833,-10e-4 0,0 -0.87598,-10e-4 -0.87598,-10e-4 0,0 -0.80713,-10e-4 -0.80713,-10e-4 0,0 -0.62451,-4.9e-4 -0.62451,-4.9e-4 0,0 -0.32764,0 -0.32764,0 0,0 -0.17627,0 -0.17627,0 0,0 -0.50244,0 -0.50244,0 0,0 -0.73682,9.8e-4 -0.73682,9.8e-4 0,0 -0.85888,9.8e-4 -0.85888,9.8e-4 0,0 -0.86768,10e-4 -0.86768,10e-4 0,0 -0.7622,0.001 -0.7622,0.001 0,0 -0.54541,0.002 -0.54541,0.002 0,0 -0.23829,0.003 -0.23829,0.003 0,0 -0.34863,0.0308 -0.34863,0.0308 0,0 -0.33691,0.0522 -0.33691,0.0522 0,0 -0.32617,0.0718 -0.32617,0.0718 0,0 -0.31495,0.0918 -0.31495,0.0918 0,0 -0.3042,0.11181 -0.3042,0.11181 0,0 -0.29296,0.13282 -0.29296,0.13282 0,0 -0.28418,0.15283 -0.28418,0.15283 0,0 -0.25537,0.16064 -0.25537,0.16064 0,0 -0.22608,0.16065 -0.22608,0.16065 0,0 -0.22803,0.18164 -0.22803,0.18164 0,0 -0.22998,0.20312 -0.22998,0.20312 0,0 -0.23193,0.22559 -0.23193,0.22559 0,0 -0.23438,0.24609 -0.23438,0.24609 0,0 -0.23535,0.26807 -0.23535,0.26807 0,0 -0.23779,0.28955 -0.23779,0.28955 0,0 -0.1499,0.22998 -0.1499,0.22998 0,0 -0.33887,0.59961 -0.33887,0.59961 0,0 -0.5293,0.93701 -0.5293,0.93701 0,0 -0.63183,1.11719 -0.63183,1.11719 0,0 -0.64502,1.1416 -0.64502,1.1416 0,0 -0.57031,1.00928 -0.57031,1.00928 0,0 -0.40674,0.72021 -0.40674,0.72021 0,0 -0.15576,0.2749 -0.15576,0.2749 0,0 2.8413,2.15772 2.8413,2.15772" style="fill:none;stroke:#000000;stroke-width:0.25;stroke-linecap:butt;stroke-linejoin:miter;stroke-miterlimit:4;stroke-dasharray:none;stroke-opacity:1" id="path38"/><path d="m 158.48242,707.52539 c 0,0 0,-1.21045 0,-1.21045 0,0 0,-2.70947 0,-2.70947 0,0 0,-2.82471 0,-2.82471 0,0 0,-1.55615 0,-1.55615 0,0 -0.86181,-0.0391 -0.86181,-0.0391 0,0 -2.53907,0 -2.53907,0 0,0 -2.8833,0 -2.8833,0 0,0 -1.85156,0 -1.85156,0 0,0 -0.15088,0.14209 -0.15088,0.14209 0,0 0,0.5874 0,0.5874 0,0 0,0.73144 0,0.73144 0,0 0,0.52979 0,0.52979 0,0 0,0.083 0,0.083 0,0 4.9e-4,0 4.9e-4,0 0,0 9.8e-4,0 9.8e-4,0 0,0 4.8e-4,0 4.8e-4,0 0,0 9.8e-4,0.0532 9.8e-4,0.0532 0,0 0,0.65674 0,0.65674 0,0 0,1.02246 0,1.02246 0,0 0,0.90088 0,0.90088 0,0 -0.003,0.39648 -0.003,0.39648 0,0 -0.10449,0.54151 -0.10449,0.54151 0,0 -0.27051,0.53613 -0.27051,0.53613 0,0 -0.4458,0.53418 -0.4458,0.53418 0,0 -0.63184,0.53271 -0.63184,0.53271 0,0 -0.74218,0.46192 -0.74218,0.46192 0,0 -0.78272,0.33496 -0.78272,0.33496 0,0 -0.82519,0.20898 -0.82519,0.20898 0,0 -0.87061,0.084 -0.87061,0.084 0,0 -0.81006,-9.8e-4 -0.81006,-9.8e-4 0,0 -1.94531,-0.01 -1.94531,-0.01 0,0 -2.20801,-0.01 -2.20801,-0.01 0,0 -1.41943,-0.007 -1.41943,-0.007 0,0 -0.66846,-0.0249 -0.66846,-0.0249 0,0 -0.80176,-0.12842 -0.80176,-0.12842 0,0 -0.77099,-0.24023 -0.77099,-0.24023 0,0 -0.7417,-0.3501 -0.7417,-0.3501 0,0 -0.69434,-0.45166 -0.69434,-0.45166 0,0 -0.52636,-0.47021 -0.52636,-0.47021 0,0 -0.3462,-0.4751 -0.3462,-0.4751 0,0 -0.17968,-0.48047 -0.17968,-0.48047 0,0 -0.0332,-0.46045 -0.0332,-0.46045 0,0 0,-1.69678 0,-1.69678 0,0 0,-2.64062 0,-2.64062 0,0 0,-2.32569 0,-2.32569 0,0 0.0181,-0.78955 0.0181,-0.78955 0,0 0.70703,0 0.70703,0 0,0 1.2832,0 1.2832,0 0,0 1.23145,0 1.23145,0 0,0 0.5498,0 0.5498,0 0,0 0,1.21045 0,1.21045 0,0 0,2.70996 0,2.70996 0,0 0,2.82471 0,2.82471 0,0 0,1.55664 0,1.55664 0,0 0.86231,0.0391 0.86231,0.0391 0,0 2.53906,0 2.53906,0 0,0 2.8833,0 2.8833,0 0,0 1.85156,0 1.85156,0 0,0 0.15088,-0.14257 0.15088,-0.14257 0,0 0,-0.58741 0,-0.58741 0,0 0,-0.73144 0,-0.73144 0,0 0,-0.53027 0,-0.53027 0,0 0,-0.082 0,-0.082 0,0 -9.7e-4,0 -9.7e-4,0 0,0 -4.9e-4,0 -4.9e-4,0 0,0 -9.8e-4,0 -9.8e-4,0 0,0 0,-0.0532 0,-0.0532 0,0 0,-0.65723 0,-0.65723 0,0 0,-1.02294 0,-1.02294 0,0 0,-0.90088 0,-0.90088 0,0 0.002,-0.39649 0.002,-0.39649 0,0 0.10498,-0.54101 0.10498,-0.54101 0,0 0.27002,-0.53662 0.27002,-0.53662 0,0 0.4458,-0.5337 0.4458,-0.5337 0,0 0.63232,-0.53222 0.63232,-0.53222 0,0 0.74219,-0.4624 0.74219,-0.4624 0,0 0.78271,-0.33545 0.78271,-0.33545 0,0 0.82471,-0.20899 0.82471,-0.20899 0,0 0.8706,-0.084 0.8706,-0.084 0,0 0.81006,10e-4 0.81006,10e-4 0,0 1.94532,0.009 1.94532,0.009 0,0 2.20849,0.0107 2.20849,0.0107 0,0 1.41895,0.007 1.41895,0.007 0,0 0.66845,0.0249 0.66845,0.0249 0,0 0.80176,0.12842 0.80176,0.12842 0,0 0.771,0.23877 0.771,0.23877 0,0 0.7417,0.35107 0.7417,0.35107 0,0 0.69433,0.45117 0.69433,0.45117 0,0 0.52637,0.47071 0.52637,0.47071 0,0 0.34619,0.47509 0.34619,0.47509 0,0 0.18018,0.4795 0.18018,0.4795 0,0 0.0327,0.46142 0.0327,0.46142 0,0 0,1.69629 0,1.69629 0,0 0,2.64063 0,2.64063 0,0 0,2.32568 0,2.32568 0,0 -0.0181,0.78955 -0.0181,0.78955 0,0 -0.70703,0 -0.70703,0 0,0 -1.28321,0 -1.28321,0 0,0 -1.23144,0 -1.23144,0 0,0 -0.54981,0 -0.54981,0 0,0 0,0 0,0 z" style="fill:none;stroke:#000000;stroke-width:0.25;stroke-linecap:butt;stroke-linejoin:miter;stroke-miterlimit:4;stroke-dasharray:none;stroke-opacity:1" id="path40"/><path d="m 158.48242,707.52539 c 0,0 0,-1.21045 0,-1.21045 0,0 0,-2.70947 0,-2.70947 0,0 0,-2.82471 0,-2.82471 0,0 0,-1.55615 0,-1.55615 0,0 -0.86181,-0.0391 -0.86181,-0.0391 0,0 -2.53907,0 -2.53907,0 0,0 -2.8833,0 -2.8833,0 0,0 -1.85156,0 -1.85156,0 0,0 -0.15088,0.14209 -0.15088,0.14209 0,0 0,0.5874 0,0.5874 0,0 0,0.73144 0,0.73144 0,0 0,0.52979 0,0.52979 0,0 0,0.083 0,0.083 0,0 4.9e-4,0 4.9e-4,0 0,0 9.8e-4,0 9.8e-4,0 0,0 4.8e-4,0 4.8e-4,0 0,0 9.8e-4,0.0532 9.8e-4,0.0532 0,0 0,0.65674 0,0.65674 0,0 0,1.02246 0,1.02246 0,0 0,0.90088 0,0.90088 0,0 -0.003,0.39648 -0.003,0.39648 0,0 -0.10449,0.54151 -0.10449,0.54151 0,0 -0.27051,0.53613 -0.27051,0.53613 0,0 -0.4458,0.53418 -0.4458,0.53418 0,0 -0.63184,0.53271 -0.63184,0.53271 0,0 -0.74218,0.46192 -0.74218,0.46192 0,0 -0.78272,0.33496 -0.78272,0.33496 0,0 -0.82519,0.20898 -0.82519,0.20898 0,0 -0.87061,0.084 -0.87061,0.084 0,0 -0.81006,-9.8e-4 -0.81006,-9.8e-4 0,0 -1.94531,-0.01 -1.94531,-0.01 0,0 -2.20801,-0.01 -2.20801,-0.01 0,0 -1.41943,-0.007 -1.41943,-0.007 0,0 -0.66846,-0.0249 -0.66846,-0.0249 0,0 -0.80176,-0.12842 -0.80176,-0.12842 0,0 -0.77099,-0.24023 -0.77099,-0.24023 0,0 -0.7417,-0.3501 -0.7417,-0.3501 0,0 -0.69434,-0.45166 -0.69434,-0.45166 0,0 -0.52636,-0.47021 -0.52636,-0.47021 0,0 -0.3462,-0.4751 -0.3462,-0.4751 0,0 -0.17968,-0.48047 -0.17968,-0.48047 0,0 -0.0332,-0.46045 -0.0332,-0.46045 0,0 0,-1.69678 0,-1.69678 0,0 0,-2.64062 0,-2.64062 0,0 0,-2.32569 0,-2.32569 0,0 0.0181,-0.78955 0.0181,-0.78955 0,0 0.70703,0 0.70703,0 0,0 1.2832,0 1.2832,0 0,0 1.23145,0 1.23145,0 0,0 0.5498,0 0.5498,0 0,0 0,1.21045 0,1.21045 0,0 0,2.70996 0,2.70996 0,0 0,2.82471 0,2.82471 0,0 0,1.55664 0,1.55664 0,0 0.86231,0.0391 0.86231,0.0391 0,0 2.53906,0 2.53906,0 0,0 2.8833,0 2.8833,0 0,0 1.85156,0 1.85156,0 0,0 0.15088,-0.14257 0.15088,-0.14257 0,0 0,-0.58741 0,-0.58741 0,0 0,-0.73144 0,-0.73144 0,0 0,-0.53027 0,-0.53027 0,0 0,-0.082 0,-0.082 0,0 -9.7e-4,0 -9.7e-4,0 0,0 -4.9e-4,0 -4.9e-4,0 0,0 -9.8e-4,0 -9.8e-4,0 0,0 0,-0.0532 0,-0.0532 0,0 0,-0.65723 0,-0.65723 0,0 0,-1.02294 0,-1.02294 0,0 0,-0.90088 0,-0.90088 0,0 0.002,-0.39649 0.002,-0.39649 0,0 0.10498,-0.54101 0.10498,-0.54101 0,0 0.27002,-0.53662 0.27002,-0.53662 0,0 0.4458,-0.5337 0.4458,-0.5337 0,0 0.63232,-0.53222 0.63232,-0.53222 0,0 0.74219,-0.4624 0.74219,-0.4624 0,0 0.78271,-0.33545 0.78271,-0.33545 0,0 0.82471,-0.20899 0.82471,-0.20899 0,0 0.8706,-0.084 0.8706,-0.084 0,0 0.81006,10e-4 0.81006,10e-4 0,0 1.94532,0.009 1.94532,0.009 0,0 2.20849,0.0107 2.20849,0.0107 0,0 1.41895,0.007 1.41895,0.007 0,0 0.66845,0.0249 0.66845,0.0249 0,0 0.80176,0.12842 0.80176,0.12842 0,0 0.771,0.23877 0.771,0.23877 0,0 0.7417,0.35107 0.7417,0.35107 0,0 0.69433,0.45117 0.69433,0.45117 0,0 0.52637,0.47071 0.52637,0.47071 0,0 0.34619,0.47509 0.34619,0.47509 0,0 0.18018,0.4795 0.18018,0.4795 0,0 0.0327,0.46142 0.0327,0.46142 0,0 0,1.69629 0,1.69629 0,0 0,2.64063 0,2.64063 0,0 0,2.32568 0,2.32568 0,0 -0.0181,0.78955 -0.0181,0.78955 0,0 -0.70703,0 -0.70703,0 0,0 -1.28321,0 -1.28321,0 0,0 -1.23144,0 -1.23144,0 0,0 -0.54981,0 -0.54981,0 z" style="fill:none;stroke:#000000;stroke-width:0.25;stroke-linecap:butt;stroke-linejoin:miter;stroke-miterlimit:4;stroke-dasharray:none;stroke-opacity:1" id="path42"/><path d="m 158.48242,707.52539 c 0,0 0,-8.33984 0,-8.33984 0,0 -8.28662,0 -8.28662,0 0,0 0,2.07373 0,2.07373 0,0 0.003,0 0.003,0 0,0 0,2.93945 0,2.93945 -9.8e-4,0.75635 -0.44336,1.49463 -1.45557,2.23486 -1.00439,0.73047 -2.1167,1.09082 -3.3706,1.0918 0,0 -6.34815,-0.0298 -6.34815,-0.0298 -1.16796,-9.8e-4 -2.23535,-0.31836 -3.22802,-0.96045 -0.9961,-0.64991 -1.41944,-1.30518 -1.41944,-1.9834 0,0 0,-7.58985 0,-7.58985 0,0 3.78955,0 3.78955,0 0,0 0,8.34082 0,8.34082 0,0 8.28711,0 8.28711,0 0,0 0,-2.07373 0,-2.07373 0,0 -0.002,0 -0.002,0 0,0 0,-2.93994 0,-2.93994 0,-0.75732 0.44238,-1.49463 1.45508,-2.23437 1.00391,-0.73096 2.11621,-1.09082 3.37061,-1.09278 0,0 6.34765,0.0303 6.34765,0.0303 1.16846,4.9e-4 2.23535,0.31738 3.22803,0.96045 0.99658,0.65039 1.41992,1.30566 1.41943,1.98291 0,0 0,7.58984 0,7.58984 0,0 -3.78955,0 -3.78955,0 z" style="fill:#000000;fill-opacity:1;fill-rule:evenodd;stroke:none" id="path44"/><path d="m 158.48242,707.52539 c 0,0 0,-8.33984 0,-8.33984 0,0 -8.28662,0 -8.28662,0 0,0 0,2.07373 0,2.07373 0,0 0.003,0 0.003,0 0,0 0,2.93945 0,2.93945 -9.8e-4,0.75635 -0.44336,1.49463 -1.45557,2.23486 -1.00439,0.73047 -2.1167,1.09082 -3.3706,1.0918 0,0 -6.34815,-0.0298 -6.34815,-0.0298 -1.16796,-9.8e-4 -2.23535,-0.31836 -3.22802,-0.96045 -0.9961,-0.64991 -1.41944,-1.30518 -1.41944,-1.9834 0,0 0,-7.58985 0,-7.58985 0,0 3.78955,0 3.78955,0 0,0 0,8.34082 0,8.34082 0,0 8.28711,0 8.28711,0 0,0 0,-2.07373 0,-2.07373 0,0 -0.002,0 -0.002,0 0,0 0,-2.93994 0,-2.93994 0,-0.75732 0.44238,-1.49463 1.45508,-2.23437 1.00391,-0.73096 2.11621,-1.09082 3.37061,-1.09278 0,0 6.34765,0.0303 6.34765,0.0303 1.16846,4.9e-4 2.23535,0.31738 3.22803,0.96045 0.99658,0.65039 1.41992,1.30566 1.41943,1.98291 0,0 0,7.58984 0,7.58984 0,0 -3.78955,0 -3.78955,0 z" style="fill:none;stroke:#000000;stroke-width:0.25;stroke-linecap:butt;stroke-linejoin:miter;stroke-miterlimit:4;stroke-dasharray:none;stroke-opacity:1" id="path46"/><path d="m 167.78076,698.69678 c 0,0 13.49756,0 13.49756,0 0,0 0,4.09424 0,4.09424 0,0 -13.72461,0 -13.72461,0 0,0 0,-4.09424 0,-4.09424 0,0 0.22705,0 0.22705,0 0,0 0,0 0,0 z" style="fill:none;stroke:#000000;stroke-width:0.25;stroke-linecap:butt;stroke-linejoin:miter;stroke-miterlimit:4;stroke-dasharray:none;stroke-opacity:1" id="path48"/><path d="m 183.04932,703.75537 c 0,0 -0.29639,0.18652 -0.29639,0.18652 0,0 -0.30957,0.16114 -0.30957,0.16114 0,0 -0.32422,0.13525 -0.32422,0.13525 0,0 -0.33789,0.10986 -0.33789,0.10986 0,0 -0.35254,0.083 -0.35254,0.083 0,0 -0.36719,0.0571 -0.36719,0.0571 0,0 -0.38232,0.0317 -0.38232,0.0317 0,0 -0.32715,0.006 -0.32715,0.006 0,0 -0.82422,0 -0.82422,0 0,0 -1.58887,0 -1.58887,0 0,0 -2.05078,0 -2.05078,0 0,0 -2.21435,0 -2.21435,0 0,0 -2.07422,0 -2.07422,0 0,0 -1.63477,0 -1.63477,0 0,0 -0.89355,0 -0.89355,0 0,0 -0.34619,-0.004 -0.34619,-0.004 0,0 -0.41504,-0.0244 -0.41504,-0.0244 0,0 -0.40137,-0.0449 -0.40137,-0.0449 0,0 -0.38769,-0.0679 -0.38769,-0.0679 0,0 -0.37403,-0.0879 -0.37403,-0.0879 0,0 -0.36035,-0.10938 -0.36035,-0.10938 0,0 -0.34766,-0.13037 -0.34766,-0.13037 0,0 -0.33398,-0.15186 -0.33398,-0.15186 0,0 -0.33643,-0.18506 -0.33643,-0.18506 0,0 -0.28662,-0.19384 -0.28662,-0.19384 0,0 -0.23535,-0.2002 -0.23535,-0.2002 0,0 -0.18652,-0.20801 -0.18652,-0.20801 0,0 -0.14111,-0.21582 -0.14111,-0.21582 0,0 -0.0947,-0.22461 -0.0947,-0.22461 0,0 -0.0527,-0.23339 -0.0527,-0.23339 0,0 -0.0122,-0.19336 -0.0122,-0.19336 0,0 0,-0.18213 0,-0.18213 0,0 0,-0.37403 0,-0.37403 0,0 0,-0.49121 0,-0.49121 0,0 0,-0.53564 0,-0.53564 0,0 0,-0.5083 0,-0.5083 0,0 0,-0.40723 0,-0.40723 0,0 0,-0.23291 0,-0.23291 0,0 0.005,-0.17432 0.005,-0.17432 0,0 0.0352,-0.25878 0.0352,-0.25878 0,0 0.0693,-0.24512 0.0693,-0.24512 0,0 0.10205,-0.23291 0.10205,-0.23291 0,0 0.13867,-0.22217 0.13867,-0.22217 0,0 0.17481,-0.21094 0.17481,-0.21094 0,0 0.2124,-0.20117 0.2124,-0.20117 0,0 0.25049,-0.19336 0.25049,-0.19336 0,0 0.2832,-0.17773 0.2832,-0.17773 0,0 0.30322,-0.15479 0.30322,-0.15479 0,0 0.32422,-0.12988 0.32422,-0.12988 0,0 0.34522,-0.10596 0.34522,-0.10596 0,0 0.36572,-0.0815 0.36572,-0.0815 0,0 0.3877,-0.0581 0.3877,-0.0581 0,0 0.40869,-0.0337 0.40869,-0.0337 0,0 0.37744,-0.009 0.37744,-0.009 0,0 0.70459,0 0.70459,0 0,0 1.54346,0 1.54346,0 0,0 2.07128,0 2.07128,0 0,0 2.2876,0 2.2876,0 0,0 2.19141,0 2.19141,0 0,0 1.78369,0 1.78369,0 0,0 1.06396,0 1.06396,0 0,0 0.34961,0.002 0.34961,0.002 0,0 0.38721,0.0234 0.38721,0.0234 0,0 0.37451,0.0483 0.37451,0.0483 0,0 0.35889,0.0718 0.35889,0.0718 0,0 0.34619,0.0967 0.34619,0.0967 0,0 0.33252,0.1206 0.33252,0.1206 0,0 0.31836,0.14405 0.31836,0.14405 0,0 0.30664,0.16943 0.30664,0.16943 0,0 0.28369,0.18848 0.28369,0.18848 0,0 0.24268,0.19482 0.24268,0.19482 0,0 0.20117,0.19922 0.20117,0.19922 0,0 0.16113,0.20508 0.16113,0.20508 0,0 0.12256,0.21142 0.12256,0.21142 0,0 0.0855,0.21875 0.0855,0.21875 0,0 0.0498,0.2251 0.0498,0.2251 0,0 0.0146,0.2168 0.0146,0.2168 0,0 0,0.14355 0,0.14355 0,0 0,0.33985 0,0.33985 0,0 0,0.46582 0,0.46582 0,0 0,0.52099 0,0.52099 0,0 0,0.50489 0,0.50489 0,0 0,0.4165 0,0.4165 0,0 0,0.2583 0,0.2583 0,0 0,0.0488 0,0.0488 0,0 0,0 0,0 0,0 0,0 0,0 0,0 0,0 0,0 0,0 0,0 0,0 0,0 0,0 0,0 0,0 0,0 0,0 0,0 0,0 0,0 0,0 -0.008,0.16602 -0.008,0.16602 0,0 -0.0415,0.23388 -0.0415,0.23388 0,0 -0.0762,0.22705 -0.0762,0.22705 0,0 -0.11231,0.22217 -0.11231,0.22217 0,0 -0.1499,0.2168 -0.1499,0.2168 0,0 -0.18897,0.21191 -0.18897,0.21191 0,0 -0.22851,0.2085 -0.22851,0.2085 0,0 -0.26953,0.20361 -0.26953,0.20361 0,0 0,0 0,0 z" style="fill:none;stroke:#000000;stroke-width:0.25;stroke-linecap:butt;stroke-linejoin:miter;stroke-miterlimit:4;stroke-dasharray:none;stroke-opacity:1" id="path50"/><path d="m 167.78076,698.69678 c 0,0 13.49756,0 13.49756,0 0,0 0,4.09424 0,4.09424 0,0 -13.72461,0 -13.72461,0 0,0 0,-4.09424 0,-4.09424 0,0 0.22705,0 0.22705,0 z m 15.26856,5.05859 c 0,0 -0.29639,0.18652 -0.29639,0.18652 0,0 -0.30957,0.16114 -0.30957,0.16114 0,0 -0.32422,0.13525 -0.32422,0.13525 0,0 -0.33789,0.10986 -0.33789,0.10986 0,0 -0.35254,0.083 -0.35254,0.083 0,0 -0.36719,0.0571 -0.36719,0.0571 0,0 -0.38232,0.0317 -0.38232,0.0317 0,0 -0.32715,0.006 -0.32715,0.006 0,0 -0.82422,0 -0.82422,0 0,0 -1.58887,0 -1.58887,0 0,0 -2.05078,0 -2.05078,0 0,0 -2.21435,0 -2.21435,0 0,0 -2.07422,0 -2.07422,0 0,0 -1.63477,0 -1.63477,0 0,0 -0.89355,0 -0.89355,0 0,0 -0.34619,-0.004 -0.34619,-0.004 0,0 -0.41504,-0.0244 -0.41504,-0.0244 0,0 -0.40137,-0.0449 -0.40137,-0.0449 0,0 -0.38769,-0.0679 -0.38769,-0.0679 0,0 -0.37403,-0.0879 -0.37403,-0.0879 0,0 -0.36035,-0.10938 -0.36035,-0.10938 0,0 -0.34766,-0.13037 -0.34766,-0.13037 0,0 -0.33398,-0.15186 -0.33398,-0.15186 0,0 -0.33643,-0.18506 -0.33643,-0.18506 0,0 -0.28662,-0.19384 -0.28662,-0.19384 0,0 -0.23535,-0.2002 -0.23535,-0.2002 0,0 -0.18652,-0.20801 -0.18652,-0.20801 0,0 -0.14111,-0.21582 -0.14111,-0.21582 0,0 -0.0947,-0.22461 -0.0947,-0.22461 0,0 -0.0527,-0.23339 -0.0527,-0.23339 0,0 -0.0122,-0.19336 -0.0122,-0.19336 0,0 0,-0.18213 0,-0.18213 0,0 0,-0.37403 0,-0.37403 0,0 0,-0.49121 0,-0.49121 0,0 0,-0.53564 0,-0.53564 0,0 0,-0.5083 0,-0.5083 0,0 0,-0.40723 0,-0.40723 0,0 0,-0.23291 0,-0.23291 0,0 0.005,-0.17432 0.005,-0.17432 0,0 0.0352,-0.25878 0.0352,-0.25878 0,0 0.0693,-0.24512 0.0693,-0.24512 0,0 0.10205,-0.23291 0.10205,-0.23291 0,0 0.13867,-0.22217 0.13867,-0.22217 0,0 0.17481,-0.21094 0.17481,-0.21094 0,0 0.2124,-0.20117 0.2124,-0.20117 0,0 0.25049,-0.19336 0.25049,-0.19336 0,0 0.2832,-0.17773 0.2832,-0.17773 0,0 0.30322,-0.15479 0.30322,-0.15479 0,0 0.32422,-0.12988 0.32422,-0.12988 0,0 0.34522,-0.10596 0.34522,-0.10596 0,0 0.36572,-0.0815 0.36572,-0.0815 0,0 0.3877,-0.0581 0.3877,-0.0581 0,0 0.40869,-0.0337 0.40869,-0.0337 0,0 0.37744,-0.009 0.37744,-0.009 0,0 0.70459,0 0.70459,0 0,0 1.54346,0 1.54346,0 0,0 2.07128,0 2.07128,0 0,0 2.2876,0 2.2876,0 0,0 2.19141,0 2.19141,0 0,0 1.78369,0 1.78369,0 0,0 1.06396,0 1.06396,0 0,0 0.34961,0.002 0.34961,0.002 0,0 0.38721,0.0234 0.38721,0.0234 0,0 0.37451,0.0483 0.37451,0.0483 0,0 0.35889,0.0718 0.35889,0.0718 0,0 0.34619,0.0967 0.34619,0.0967 0,0 0.33252,0.1206 0.33252,0.1206 0,0 0.31836,0.14405 0.31836,0.14405 0,0 0.30664,0.16943 0.30664,0.16943 0,0 0.28369,0.18848 0.28369,0.18848 0,0 0.24268,0.19482 0.24268,0.19482 0,0 0.20117,0.19922 0.20117,0.19922 0,0 0.16113,0.20508 0.16113,0.20508 0,0 0.12256,0.21142 0.12256,0.21142 0,0 0.0855,0.21875 0.0855,0.21875 0,0 0.0498,0.2251 0.0498,0.2251 0,0 0.0146,0.2168 0.0146,0.2168 0,0 0,0.14355 0,0.14355 0,0 0,0.33985 0,0.33985 0,0 0,0.46582 0,0.46582 0,0 0,0.52099 0,0.52099 0,0 0,0.50489 0,0.50489 0,0 0,0.4165 0,0.4165 0,0 0,0.2583 0,0.2583 0,0 0,0.0488 0,0.0488 0,0 0,0 0,0 0,0 0,0 0,0 0,0 0,0 0,0 0,0 0,0 0,0 0,0 0,0 0,0 0,0 0,0 0,0 0,0 0,0 0,0 0,0 -0.008,0.16602 -0.008,0.16602 0,0 -0.0415,0.23388 -0.0415,0.23388 0,0 -0.0762,0.22705 -0.0762,0.22705 0,0 -0.11231,0.22217 -0.11231,0.22217 0,0 -0.1499,0.2168 -0.1499,0.2168 0,0 -0.18897,0.21191 -0.18897,0.21191 0,0 -0.22851,0.2085 -0.22851,0.2085 0,0 -0.26953,0.20361 -0.26953,0.20361 z" style="fill:none;stroke:#000000;stroke-width:0.25;stroke-linecap:butt;stroke-linejoin:miter;stroke-miterlimit:4;stroke-dasharray:none;stroke-opacity:1" id="path52"/><g id="g54"><g id="g56"/><g id="g70"><g clip-path="url(#clipPath60)" opacity="0" id="g68"><g transform="scale(1,-1)" id="g66"><path d="m 183.04932,-703.75537 c -0.74317,-0.51221 -1.61621,-0.77002 -2.64405,-0.77051 0,0 -11.4165,0 -11.4165,0 -1.10547,0 -2.07178,0.21338 -2.90869,0.6333 -0.92822,0.47217 -1.31885,1.00488 -1.3208,1.63428 0,0 0,2.76758 0,2.76758 0.004,0.70166 0.32177,1.25732 1.03076,1.73926 0.70801,0.47607 1.61426,0.7207 2.73877,0.72119 0,0 11.82568,0 11.82568,0 1.03076,-4.9e-4 1.91651,-0.24121 2.67676,-0.71924 0.76172,-0.48389 1.09082,-1.00733 1.09277,-1.6167 0,0 0,-2.69922 0,-2.69922 0,0 0,0 0,0 -0.002,-0.62012 -0.32959,-1.17041 -1.0747,-1.68994 z" style="fill:#000000;fill-opacity:1;fill-rule:evenodd;stroke:none" id="path62"/><path d="m 183.04932,-703.75537 c -0.74317,-0.51221 -1.61621,-0.77002 -2.64405,-0.77051 0,0 -11.4165,0 -11.4165,0 -1.10547,0 -2.07178,0.21338 -2.90869,0.6333 -0.92822,0.47217 -1.31885,1.00488 -1.3208,1.63428 0,0 0,2.76758 0,2.76758 0.004,0.70166 0.32177,1.25732 1.03076,1.73926 0.70801,0.47607 1.61426,0.7207 2.73877,0.72119 0,0 11.82568,0 11.82568,0 1.03076,-4.9e-4 1.91651,-0.24121 2.67676,-0.71924 0.76172,-0.48389 1.09082,-1.00733 1.09277,-1.6167 0,0 0,-2.69922 0,-2.69922 0,0 0,0 0,0 -0.002,-0.62012 -0.32959,-1.17041 -1.0747,-1.68994 z" style="fill:none;stroke:#000000;stroke-width:0.25;stroke-linecap:butt;stroke-linejoin:miter;stroke-miterlimit:4;stroke-dasharray:none;stroke-opacity:1" id="path64"/></g></g></g></g><g id="g72"><g id="g74"/><g id="g88"><g clip-path="url(#clipPath78)" opacity="0" id="g86"><g transform="scale(1,-1)" id="g84"><path d="m 167.78076,-698.69678 c 0,0 -0.22705,0 -0.22705,0" style="fill:#000000;fill-opacity:1;fill-rule:evenodd;stroke:none" id="path80"/><path d="m 167.78076,-698.69678 c 0,0 -0.22705,0 -0.22705,0" style="fill:none;stroke:#000000;stroke-width:0.25;stroke-linecap:butt;stroke-linejoin:miter;stroke-miterlimit:4;stroke-dasharray:none;stroke-opacity:1" id="path82"/></g></g></g></g><path d="m 233.31299,699.22168 c 0,0 0,0.2124 0,0.2124 0,0 0,0.5625 0,0.5625 0,0 0,0.80225 0,0.80225 0,0 0,0.93213 0,0.93213 0,0 0,0.95019 0,0.95019 0,0 0,0.85791 0,0.85791 0,0 0,0.65479 0,0.65479 0,0 0,0.34082 0,0.34082 0,0 -0.0523,0.0254 -0.0523,0.0254 0,0 -0.24658,0 -0.24658,0 0,0 -0.39697,0 -0.39697,0 0,0 -0.48535,0 -0.48535,0 0,0 -0.51661,0 -0.51661,0 0,0 -0.48584,0 -0.48584,0 0,0 -0.39648,0 -0.39648,0 0,0 -0.24707,0 -0.24707,0 0,0 -0.0522,-0.0278 -0.0522,-0.0278 0,0 0,-0.37744 0,-0.37744 0,0 0,-0.7251 0,-0.7251 0,0 0,-0.94922 0,-0.94922 0,0 0,-1.05176 0,-1.05176 0,0 0,-1.03125 0,-1.03125 0,0 0,-0.88818 0,-0.88818 0,0 0,-0.62305 0,-0.62305 0,0 0,-0.23486 0,-0.23486 0,0 -0.55615,0 -0.55615,0 0,0 -1.47558,0 -1.47558,0 0,0 -2.10401,0 -2.10401,0 0,0 -2.44287,0 -2.44287,0 0,0 -2.4917,0 -2.4917,0 0,0 -2.24951,0 -2.24951,0 0,0 -1.71729,0 -1.71729,0 0,0 -0.89502,0 -0.89502,0 0,0 -0.0649,0.10742 -0.0649,0.10742 0,0 0,0.50732 0,0.50732 0,0 0,0.81299 0,0.81299 0,0 0,0.99707 0,0.99707 0,0 0,1.0586 0,1.0586 0,0 0,0.99755 0,0.99755 0,0 0,0.81299 0,0.81299 0,0 0,0.50782 0,0.50782 0,0 -0.0137,0.10693 -0.0137,0.10693 0,0 -0.18164,0 -0.18164,0 0,0 -0.34961,0 -0.34961,0 0,0 -0.45752,0 -0.45752,0 0,0 -0.50635,0 -0.50635,0 0,0 -0.4956,0 -0.4956,0 0,0 -0.42822,0 -0.42822,0 0,0 -0.3003,0 -0.3003,0 0,0 -0.1123,0 -0.1123,0 0,0 0,-0.20166 0,-0.20166 0,0 0,-0.53418 0,-0.53418 0,0 0,-0.76221 0,-0.76221 0,0 0,-0.88476 0,-0.88476 0,0 0,-0.90235 0,-0.90235 0,0 0,-0.81445 0,-0.81445 0,0 0,-0.62207 0,-0.62207 0,0 0,-0.32422 0,-0.32422 0,0 0.006,-0.16113 0.006,-0.16113 0,0 0.0356,-0.20606 0.0356,-0.20606 0,0 0.0645,-0.20459 0.0645,-0.20459 0,0 0.0976,-0.2041 0.0976,-0.2041 0,0 0.12988,-0.20361 0.12988,-0.20361 0,0 0.16358,-0.20264 0.16358,-0.20264 0,0 0.19824,-0.20264 0.19824,-0.20264 0,0 0.2334,-0.20263 0.2334,-0.20263 0,0 0.26855,-0.2002 0.26855,-0.2002 0,0 0.28077,-0.17968 0.28077,-0.17968 0,0 0.28759,-0.15577 0.28759,-0.15577 0,0 0.2959,-0.13086 0.2959,-0.13086 0,0 0.30371,-0.10693 0.30371,-0.10693 0,0 0.31299,-0.0835 0.31299,-0.0835 0,0 0.32031,-0.0601 0.32031,-0.0601 0,0 0.32959,-0.0357 0.32959,-0.0357 0,0 0.33838,-0.0122 0.33838,-0.0122 0,0 0.49756,9.8e-4 0.49756,9.8e-4 0,0 1.32031,0.002 1.32031,0.002 0,0 1.88282,0.003 1.88282,0.003 0,0 2.18505,0.004 2.18505,0.004 0,0 2.22999,0.004 2.22999,0.004 0,0 2.01269,0.004 2.01269,0.004 0,0 1.53662,0.002 1.53662,0.002 0,0 0.80029,10e-4 0.80029,10e-4 0,0 0.27051,0.005 0.27051,0.005 0,0 0.31201,0.0239 0.31201,0.0239 0,0 0.30567,0.0459 0.30567,0.0459 0,0 0.2998,0.0664 0.2998,0.0664 0,0 0.29346,0.0869 0.29346,0.0869 0,0 0.28809,0.10889 0.28809,0.10889 0,0 0.28222,0.12988 0.28222,0.12988 0,0 0.27783,0.15088 0.27783,0.15088 0,0 0.271,0.17187 0.271,0.17187 0,0 0.2417,0.17823 0.2417,0.17823 0,0 0.20557,0.17871 0.20557,0.17871 0,0 0.17041,0.1792 0.17041,0.1792 0,0 0.1372,0.18017 0.1372,0.18017 0,0 0.1045,0.18116 0.1045,0.18116 0,0 0.0737,0.18212 0.0737,0.18212 0,0 0.043,0.1836 0.043,0.1836 0,0 0.0132,0.18408 0.0132,0.18408 0,0 0,0 0,0 z" style="fill:none;stroke:#000000;stroke-width:0.25;stroke-linecap:butt;stroke-linejoin:miter;stroke-miterlimit:4;stroke-dasharray:none;stroke-opacity:1" id="path90"/><path d="m 233.31299,699.22168 c 0,0 0,0.2124 0,0.2124 0,0 0,0.5625 0,0.5625 0,0 0,0.80225 0,0.80225 0,0 0,0.93213 0,0.93213 0,0 0,0.95019 0,0.95019 0,0 0,0.85791 0,0.85791 0,0 0,0.65479 0,0.65479 0,0 0,0.34082 0,0.34082 0,0 -0.0523,0.0254 -0.0523,0.0254 0,0 -0.24658,0 -0.24658,0 0,0 -0.39697,0 -0.39697,0 0,0 -0.48535,0 -0.48535,0 0,0 -0.51661,0 -0.51661,0 0,0 -0.48584,0 -0.48584,0 0,0 -0.39648,0 -0.39648,0 0,0 -0.24707,0 -0.24707,0 0,0 -0.0522,-0.0278 -0.0522,-0.0278 0,0 0,-0.37744 0,-0.37744 0,0 0,-0.7251 0,-0.7251 0,0 0,-0.94922 0,-0.94922 0,0 0,-1.05176 0,-1.05176 0,0 0,-1.03125 0,-1.03125 0,0 0,-0.88818 0,-0.88818 0,0 0,-0.62305 0,-0.62305 0,0 0,-0.23486 0,-0.23486 0,0 -0.55615,0 -0.55615,0 0,0 -1.47558,0 -1.47558,0 0,0 -2.10401,0 -2.10401,0 0,0 -2.44287,0 -2.44287,0 0,0 -2.4917,0 -2.4917,0 0,0 -2.24951,0 -2.24951,0 0,0 -1.71729,0 -1.71729,0 0,0 -0.89502,0 -0.89502,0 0,0 -0.0649,0.10742 -0.0649,0.10742 0,0 0,0.50732 0,0.50732 0,0 0,0.81299 0,0.81299 0,0 0,0.99707 0,0.99707 0,0 0,1.0586 0,1.0586 0,0 0,0.99755 0,0.99755 0,0 0,0.81299 0,0.81299 0,0 0,0.50782 0,0.50782 0,0 -0.0137,0.10693 -0.0137,0.10693 0,0 -0.18164,0 -0.18164,0 0,0 -0.34961,0 -0.34961,0 0,0 -0.45752,0 -0.45752,0 0,0 -0.50635,0 -0.50635,0 0,0 -0.4956,0 -0.4956,0 0,0 -0.42822,0 -0.42822,0 0,0 -0.3003,0 -0.3003,0 0,0 -0.1123,0 -0.1123,0 0,0 0,-0.20166 0,-0.20166 0,0 0,-0.53418 0,-0.53418 0,0 0,-0.76221 0,-0.76221 0,0 0,-0.88476 0,-0.88476 0,0 0,-0.90235 0,-0.90235 0,0 0,-0.81445 0,-0.81445 0,0 0,-0.62207 0,-0.62207 0,0 0,-0.32422 0,-0.32422 0,0 0.006,-0.16113 0.006,-0.16113 0,0 0.0356,-0.20606 0.0356,-0.20606 0,0 0.0645,-0.20459 0.0645,-0.20459 0,0 0.0976,-0.2041 0.0976,-0.2041 0,0 0.12988,-0.20361 0.12988,-0.20361 0,0 0.16358,-0.20264 0.16358,-0.20264 0,0 0.19824,-0.20264 0.19824,-0.20264 0,0 0.2334,-0.20263 0.2334,-0.20263 0,0 0.26855,-0.2002 0.26855,-0.2002 0,0 0.28077,-0.17968 0.28077,-0.17968 0,0 0.28759,-0.15577 0.28759,-0.15577 0,0 0.2959,-0.13086 0.2959,-0.13086 0,0 0.30371,-0.10693 0.30371,-0.10693 0,0 0.31299,-0.0835 0.31299,-0.0835 0,0 0.32031,-0.0601 0.32031,-0.0601 0,0 0.32959,-0.0357 0.32959,-0.0357 0,0 0.33838,-0.0122 0.33838,-0.0122 0,0 0.49756,9.8e-4 0.49756,9.8e-4 0,0 1.32031,0.002 1.32031,0.002 0,0 1.88282,0.003 1.88282,0.003 0,0 2.18505,0.004 2.18505,0.004 0,0 2.22999,0.004 2.22999,0.004 0,0 2.01269,0.004 2.01269,0.004 0,0 1.53662,0.002 1.53662,0.002 0,0 0.80029,10e-4 0.80029,10e-4 0,0 0.27051,0.005 0.27051,0.005 0,0 0.31201,0.0239 0.31201,0.0239 0,0 0.30567,0.0459 0.30567,0.0459 0,0 0.2998,0.0664 0.2998,0.0664 0,0 0.29346,0.0869 0.29346,0.0869 0,0 0.28809,0.10889 0.28809,0.10889 0,0 0.28222,0.12988 0.28222,0.12988 0,0 0.27783,0.15088 0.27783,0.15088 0,0 0.271,0.17187 0.271,0.17187 0,0 0.2417,0.17823 0.2417,0.17823 0,0 0.20557,0.17871 0.20557,0.17871 0,0 0.17041,0.1792 0.17041,0.1792 0,0 0.1372,0.18017 0.1372,0.18017 0,0 0.1045,0.18116 0.1045,0.18116 0,0 0.0737,0.18212 0.0737,0.18212 0,0 0.043,0.1836 0.043,0.1836 0,0 0.0132,0.18408 0.0132,0.18408 z" style="fill:none;stroke:#000000;stroke-width:0.25;stroke-linecap:butt;stroke-linejoin:miter;stroke-miterlimit:4;stroke-dasharray:none;stroke-opacity:1" id="path92"/><path d="m 233.31299,699.22168 c 0,0 0,5.33838 0,5.33838 0,0 -2.8794,0 -2.8794,0 0,0 0,-5.90869 0,-5.90869 0,0 -13.99707,0 -13.99707,0 0,0 0,5.90869 0,5.90869 0,0 -2.84521,0 -2.84521,0 0,0 0,-5.06934 0,-5.06934 0,-0.57519 0.33642,-1.13672 1.10498,-1.69824 0.76318,-0.55566 1.60791,-0.8291 2.56152,-0.83057 0,0 12.52442,0.023 12.52442,0.023 0.88769,0 1.69824,0.2417 2.45215,0.72998 0.75781,0.49414 1.07861,0.9917 1.07861,1.50684 z" style="fill:#000000;fill-opacity:1;fill-rule:evenodd;stroke:none" id="path94"/><path d="m 233.31299,699.22168 c 0,0 0,5.33838 0,5.33838 0,0 -2.8794,0 -2.8794,0 0,0 0,-5.90869 0,-5.90869 0,0 -13.99707,0 -13.99707,0 0,0 0,5.90869 0,5.90869 0,0 -2.84521,0 -2.84521,0 0,0 0,-5.06934 0,-5.06934 0,-0.57519 0.33642,-1.13672 1.10498,-1.69824 0.76318,-0.55566 1.60791,-0.8291 2.56152,-0.83057 0,0 12.52442,0.023 12.52442,0.023 0.88769,0 1.69824,0.2417 2.45215,0.72998 0.75781,0.49414 1.07861,0.9917 1.07861,1.50684 z" style="fill:none;stroke:#000000;stroke-width:0.25;stroke-linecap:butt;stroke-linejoin:miter;stroke-miterlimit:4;stroke-dasharray:none;stroke-opacity:1" id="path96"/><path d="m 262.98975,700.125 c 0,0 -0.0479,0.45801 -0.0479,0.45801 0,0 -0.14209,0.43262 -0.14209,0.43262 0,0 -0.24218,0.40869 -0.24218,0.40869 0,0 -0.34571,0.38916 -0.34571,0.38916 0,0 -0.45556,0.37109 -0.45556,0.37109 0,0 -0.56201,0.34912 -0.56201,0.34912 0,0 -0.61084,0.29151 -0.61084,0.29151 0,0 -0.64844,0.229 -0.64844,0.229 0,0 -0.68652,0.1665 -0.68652,0.1665 0,0 -0.7251,0.10254 -0.7251,0.10254 0,0 -0.76465,0.0391 -0.76465,0.0391 0,0 -1.29981,4.9e-4 -1.29981,4.9e-4 0,0 -3.52587,0 -3.52587,0 0,0 -4.62452,0 -4.62452,0 0,0 -4.48828,0 -4.48828,0 0,0 -3.11328,0 -3.11328,0 0,0 -0.70215,0.0205 -0.70215,0.0205 0,0 0,0.26367 0,0.26367 0,0 0,0.46045 0,0.46045 0,0 0,0.52246 0,0.52246 0,0 0,0.44532 0,0.44532 0,0 0,0.23291 0,0.23291 0,0 1.16553,0.009 1.16553,0.009 0,0 4.11816,0 4.11816,0 0,0 5.64893,0 5.64893,0 0,0 5.64893,0 5.64893,0 0,0 4.11816,0 4.11816,0 0,0 1.16553,0.0103 1.16553,0.0103 0,0 0,0.26123 0,0.26123 0,0 0,0.5 0,0.5 0,0 0,0.58593 0,0.58593 0,0 0,0.51661 0,0.51661 0,0 0,0.29541 0,0.29541 0,0 -0.79004,0.02 -0.79004,0.02 0,0 -3.50537,-0.0132 -3.50537,-0.0132 0,0 -5.05127,-0.019 -5.05127,-0.019 0,0 -5.20606,-0.019 -5.20606,-0.019 0,0 -3.96924,-0.0146 -3.96924,-0.0146 0,0 -1.458,-0.006 -1.458,-0.006 0,0 -0.81787,-0.0391 -0.81787,-0.0391 0,0 -0.7793,-0.0942 -0.7793,-0.0942 0,0 -0.73975,-0.14942 -0.73975,-0.14942 0,0 -0.70117,-0.20361 -0.70117,-0.20361 0,0 -0.6626,-0.25781 -0.6626,-0.25781 0,0 -0.64453,-0.32715 -0.64453,-0.32715 0,0 -0.54394,-0.36621 -0.54394,-0.36621 0,0 -0.41114,-0.38867 -0.41114,-0.38867 0,0 -0.28564,-0.41114 -0.28564,-0.41114 0,0 -0.16748,-0.43798 -0.16748,-0.43798 0,0 -0.0552,-0.46436 -0.0552,-0.46436 0,0 0.0483,-0.44922 0.0483,-0.44922 0,0 0.146,-0.42529 0.146,-0.42529 0,0 0.24756,-0.4043 0.24756,-0.4043 0,0 0.35449,-0.38428 0.35449,-0.38428 0,0 0.46826,-0.36767 0.46826,-0.36767 0,0 0.5669,-0.33985 0.5669,-0.33985 0,0 0.60449,-0.27636 0.60449,-0.27636 0,0 0.64404,-0.2168 0.64404,-0.2168 0,0 0.68311,-0.15674 0.68311,-0.15674 0,0 0.72461,-0.0977 0.72461,-0.0977 0,0 0.76611,-0.0371 0.76611,-0.0371 0,0 1.31494,0 1.31494,0 0,0 3.57031,0 3.57031,0 0,0 4.68262,0 4.68262,0 0,0 4.54443,0 4.54443,0 0,0 3.15284,0 3.15284,0 0,0 0.71093,-0.021 0.71093,-0.021 0,0 0,-0.26074 0,-0.26074 0,0 0,-0.45752 0,-0.45752 0,0 0,-0.51758 0,-0.51758 0,0 0,-0.44287 0,-0.44287 0,0 0,-0.23096 0,-0.23096 0,0 -1.18164,-0.009 -1.18164,-0.009 0,0 -4.17822,0 -4.17822,0 0,0 -5.729,0 -5.729,0 0,0 -5.72998,0 -5.72998,0 0,0 -4.17725,0 -4.17725,0 0,0 -1.18262,-0.0107 -1.18262,-0.0107 0,0 0,-0.2666 0,-0.2666 0,0 0,-0.51025 0,-0.51025 0,0 0,-0.59766 0,-0.59766 0,0 0,-0.52734 0,-0.52734 0,0 0,-0.30225 0,-0.30225 0,0 0.81787,-0.021 0.81787,-0.021 0,0 3.62793,0.008 3.62793,0.008 0,0 5.22901,0.0107 5.22901,0.0107 0,0 5.38818,0.0112 5.38818,0.0112 0,0 4.1084,0.009 4.1084,0.009 0,0 1.49658,0.003 1.49658,0.003 0,0 0.74414,0.0376 0.74414,0.0376 0,0 0.70996,0.0991 0.70996,0.0991 0,0 0.67627,0.16016 0.67627,0.16016 0,0 0.64307,0.22119 0.64307,0.22119 0,0 0.6123,0.28125 0.6123,0.28125 0,0 0.56592,0.33643 0.56592,0.33643 0,0 0.45752,0.35839 0.45752,0.35839 0,0 0.34766,0.375 0.34766,0.375 0,0 0.24218,0.39405 0.24218,0.39405 0,0 0.14209,0.41553 0.14209,0.41553 0,0 0.0479,0.43896 0.0479,0.43896 0,0 0,0 0,0 z" style="fill:none;stroke:#000000;stroke-width:0.25;stroke-linecap:butt;stroke-linejoin:miter;stroke-miterlimit:4;stroke-dasharray:none;stroke-opacity:1" id="path98"/><path d="m 262.98975,700.125 c 0,0 -0.0479,0.45801 -0.0479,0.45801 0,0 -0.14209,0.43262 -0.14209,0.43262 0,0 -0.24218,0.40869 -0.24218,0.40869 0,0 -0.34571,0.38916 -0.34571,0.38916 0,0 -0.45556,0.37109 -0.45556,0.37109 0,0 -0.56201,0.34912 -0.56201,0.34912 0,0 -0.61084,0.29151 -0.61084,0.29151 0,0 -0.64844,0.229 -0.64844,0.229 0,0 -0.68652,0.1665 -0.68652,0.1665 0,0 -0.7251,0.10254 -0.7251,0.10254 0,0 -0.76465,0.0391 -0.76465,0.0391 0,0 -1.29981,4.9e-4 -1.29981,4.9e-4 0,0 -3.52587,0 -3.52587,0 0,0 -4.62452,0 -4.62452,0 0,0 -4.48828,0 -4.48828,0 0,0 -3.11328,0 -3.11328,0 0,0 -0.70215,0.0205 -0.70215,0.0205 0,0 0,0.26367 0,0.26367 0,0 0,0.46045 0,0.46045 0,0 0,0.52246 0,0.52246 0,0 0,0.44532 0,0.44532 0,0 0,0.23291 0,0.23291 0,0 1.16553,0.009 1.16553,0.009 0,0 4.11816,0 4.11816,0 0,0 5.64893,0 5.64893,0 0,0 5.64893,0 5.64893,0 0,0 4.11816,0 4.11816,0 0,0 1.16553,0.0103 1.16553,0.0103 0,0 0,0.26123 0,0.26123 0,0 0,0.5 0,0.5 0,0 0,0.58593 0,0.58593 0,0 0,0.51661 0,0.51661 0,0 0,0.29541 0,0.29541 0,0 -0.79004,0.02 -0.79004,0.02 0,0 -3.50537,-0.0132 -3.50537,-0.0132 0,0 -5.05127,-0.019 -5.05127,-0.019 0,0 -5.20606,-0.019 -5.20606,-0.019 0,0 -3.96924,-0.0146 -3.96924,-0.0146 0,0 -1.458,-0.006 -1.458,-0.006 0,0 -0.81787,-0.0391 -0.81787,-0.0391 0,0 -0.7793,-0.0942 -0.7793,-0.0942 0,0 -0.73975,-0.14942 -0.73975,-0.14942 0,0 -0.70117,-0.20361 -0.70117,-0.20361 0,0 -0.6626,-0.25781 -0.6626,-0.25781 0,0 -0.64453,-0.32715 -0.64453,-0.32715 0,0 -0.54394,-0.36621 -0.54394,-0.36621 0,0 -0.41114,-0.38867 -0.41114,-0.38867 0,0 -0.28564,-0.41114 -0.28564,-0.41114 0,0 -0.16748,-0.43798 -0.16748,-0.43798 0,0 -0.0552,-0.46436 -0.0552,-0.46436 0,0 0.0483,-0.44922 0.0483,-0.44922 0,0 0.146,-0.42529 0.146,-0.42529 0,0 0.24756,-0.4043 0.24756,-0.4043 0,0 0.35449,-0.38428 0.35449,-0.38428 0,0 0.46826,-0.36767 0.46826,-0.36767 0,0 0.5669,-0.33985 0.5669,-0.33985 0,0 0.60449,-0.27636 0.60449,-0.27636 0,0 0.64404,-0.2168 0.64404,-0.2168 0,0 0.68311,-0.15674 0.68311,-0.15674 0,0 0.72461,-0.0977 0.72461,-0.0977 0,0 0.76611,-0.0371 0.76611,-0.0371 0,0 1.31494,0 1.31494,0 0,0 3.57031,0 3.57031,0 0,0 4.68262,0 4.68262,0 0,0 4.54443,0 4.54443,0 0,0 3.15284,0 3.15284,0 0,0 0.71093,-0.021 0.71093,-0.021 0,0 0,-0.26074 0,-0.26074 0,0 0,-0.45752 0,-0.45752 0,0 0,-0.51758 0,-0.51758 0,0 0,-0.44287 0,-0.44287 0,0 0,-0.23096 0,-0.23096 0,0 -1.18164,-0.009 -1.18164,-0.009 0,0 -4.17822,0 -4.17822,0 0,0 -5.729,0 -5.729,0 0,0 -5.72998,0 -5.72998,0 0,0 -4.17725,0 -4.17725,0 0,0 -1.18262,-0.0107 -1.18262,-0.0107 0,0 0,-0.2666 0,-0.2666 0,0 0,-0.51025 0,-0.51025 0,0 0,-0.59766 0,-0.59766 0,0 0,-0.52734 0,-0.52734 0,0 0,-0.30225 0,-0.30225 0,0 0.81787,-0.021 0.81787,-0.021 0,0 3.62793,0.008 3.62793,0.008 0,0 5.22901,0.0107 5.22901,0.0107 0,0 5.38818,0.0112 5.38818,0.0112 0,0 4.1084,0.009 4.1084,0.009 0,0 1.49658,0.003 1.49658,0.003 0,0 0.74414,0.0376 0.74414,0.0376 0,0 0.70996,0.0991 0.70996,0.0991 0,0 0.67627,0.16016 0.67627,0.16016 0,0 0.64307,0.22119 0.64307,0.22119 0,0 0.6123,0.28125 0.6123,0.28125 0,0 0.56592,0.33643 0.56592,0.33643 0,0 0.45752,0.35839 0.45752,0.35839 0,0 0.34766,0.375 0.34766,0.375 0,0 0.24218,0.39405 0.24218,0.39405 0,0 0.14209,0.41553 0.14209,0.41553 0,0 0.0479,0.43896 0.0479,0.43896 z" style="fill:none;stroke:#000000;stroke-width:0.25;stroke-linecap:butt;stroke-linejoin:miter;stroke-miterlimit:4;stroke-dasharray:none;stroke-opacity:1" id="path100"/><path d="m 262.98975,700.125 c -0.004,0.87256 -0.46827,1.60205 -1.53516,2.25928 -1.06787,0.64941 -2.32129,0.97802 -3.78369,0.97851 0,0 -17.66602,0 -17.66602,0 0,0 0,1.95459 0,1.95459 0,0 21.86524,0 21.86524,0 0,0 0,2.19239 0,2.19239 0,0 -19.88623,-0.0737 -19.88623,-0.0737 -1.56055,-0.01 -2.91602,-0.30518 -4.07715,-0.87745 -1.2793,-0.64013 -1.82178,-1.37548 -1.8252,-2.26318 0.004,-0.85547 0.47754,-1.57617 1.57471,-2.229 1.05322,-0.61475 2.30078,-0.92627 3.76611,-0.92627 0,0 17.88916,0 17.88916,0 0,0 0,-1.93946 0,-1.93946 0,0 -22.17871,0 -22.17871,0 0,0 0,-2.2373 0,-2.2373 0,0 20.5835,0.0435 20.5835,0.0435 1.41699,4.8e-4 2.65332,0.31689 3.73193,0.94433 1.07471,0.63428 1.53711,1.33643 1.54151,2.17383 z" style="fill:#000000;fill-opacity:1;fill-rule:evenodd;stroke:none" id="path102"/><path d="m 262.98975,700.125 c -0.004,0.87256 -0.46827,1.60205 -1.53516,2.25928 -1.06787,0.64941 -2.32129,0.97802 -3.78369,0.97851 0,0 -17.66602,0 -17.66602,0 0,0 0,1.95459 0,1.95459 0,0 21.86524,0 21.86524,0 0,0 0,2.19239 0,2.19239 0,0 -19.88623,-0.0737 -19.88623,-0.0737 -1.56055,-0.01 -2.91602,-0.30518 -4.07715,-0.87745 -1.2793,-0.64013 -1.82178,-1.37548 -1.8252,-2.26318 0.004,-0.85547 0.47754,-1.57617 1.57471,-2.229 1.05322,-0.61475 2.30078,-0.92627 3.76611,-0.92627 0,0 17.88916,0 17.88916,0 0,0 0,-1.93946 0,-1.93946 0,0 -22.17871,0 -22.17871,0 0,0 0,-2.2373 0,-2.2373 0,0 20.5835,0.0435 20.5835,0.0435 1.41699,4.8e-4 2.65332,0.31689 3.73193,0.94433 1.07471,0.63428 1.53711,1.33643 1.54151,2.17383 z" style="fill:none;stroke:#000000;stroke-width:0.25;stroke-linecap:butt;stroke-linejoin:miter;stroke-miterlimit:4;stroke-dasharray:none;stroke-opacity:1" id="path104"/><path d="m 186.93408,705.41846 c 0,0 -0.17285,0 -0.17285,0 0,0 -0.27832,0 -0.27832,0 0,0 -0.37793,0 -0.37793,0 0,0 -0.46924,0 -0.46924,0 0,0 -0.55371,0 -0.55371,0 0,0 -0.63135,0 -0.63135,0 0,0 -0.70068,0 -0.70068,0 0,0 -0.76367,0 -0.76367,0 0,0 -0.81934,0 -0.81934,0 0,0 -0.86767,0 -0.86767,0 0,0 -0.90869,0 -0.90869,0 0,0 -0.94288,0 -0.94288,0 0,0 -0.96875,0 -0.96875,0 0,0 -0.98779,0 -0.98779,0 0,0 -1.00049,0 -1.00049,0 0,0 -1.00537,0 -1.00537,0 0,0 -1.00244,0 -1.00244,0 0,0 -0.99316,0 -0.99316,0 0,0 -0.97608,0 -0.97608,0 0,0 -0.95215,0 -0.95215,0 0,0 -0.92089,0 -0.92089,0 0,0 -0.88184,0 -0.88184,0 0,0 -0.83594,0 -0.83594,0 0,0 -0.7832,0 -0.7832,0 0,0 -0.72266,0 -0.72266,0 0,0 -0.65527,0 -0.65527,0 0,0 -0.58008,0 -0.58008,0 0,0 -0.49853,0 -0.49853,0 0,0 -0.40967,0 -0.40967,0 0,0 -0.31201,0 -0.31201,0 0,0 -0.20899,0 -0.20899,0 0,0 -0.0972,0 -0.0972,0 0,0 -0.007,0.003 -0.007,0.003 0,0 0,0.16357 0,0.16357 0,0 0,0.0581 0,0.0581 0,0 0,0.0659 0,0.0659 0,0 0,0.0718 0,0.0718 0,0 0,0.0771 0,0.0771 0,0 -4.9e-4,0.0825 -4.9e-4,0.0825 0,0 0,0.0869 0,0.0869 0,0 0,0.0899 0,0.0899 0,0 0,0.0923 0,0.0923 0,0 0,0.0952 0,0.0952 0,0 -4.9e-4,0.0962 -4.9e-4,0.0962 0,0 0,0.0972 0,0.0972 0,0 0,0.0967 0,0.0967 0,0 0,0.0962 0,0.0962 0,0 0,0.0952 0,0.0952 0,0 0,0.0933 0,0.0933 0,0 0,0.0894 0,0.0894 0,0 0,0.0864 0,0.0864 0,0 -4.9e-4,0.083 -4.9e-4,0.083 0,0 0,0.0767 0,0.0767 0,0 0,0.0718 0,0.0718 0,0 0,0.0659 0,0.0659 0,0 0,0.0581 0,0.0581 0,0 0,0.0513 0,0.0513 0,0 0,0.0425 0,0.0425 0,0 0,0.0332 0,0.0332 0,0 0,0.0239 0,0.0239 0,0 0,0.0127 0,0.0127 0,0 0.007,0.002 0.007,0.002 0,0 0.11084,0 0.11084,0 0,0 0.23486,0 0.23486,0 0,0 0.35254,0 0.35254,0 0,0 0.46045,0 0.46045,0 0,0 0.5625,0 0.5625,0 0,0 0.6543,0 0.6543,0 0,0 0.73779,0 0.73779,0 0,0 0.81543,0 0.81543,0 0,0 0.88281,0 0.88281,0 0,0 0.94239,0 0.94239,0 0,0 0.99414,0 0.99414,0 0,0 1.03759,0 1.03759,0 0,0 1.07374,0 1.07374,0 0,0 1.10009,0 1.10009,0 0,0 1.11963,0 1.11963,0 0,0 1.12988,0 1.12988,0 0,0 1.13331,0 1.13331,0 0,0 1.12744,0 1.12744,0 0,0 1.11377,0 1.11377,0 0,0 1.09228,0 1.09228,0 0,0 1.0625,0 1.0625,0 0,0 1.02393,0 1.02393,0 0,0 0.97802,0 0.97802,0 0,0 0.92334,0 0.92334,0 0,0 0.86133,0 0.86133,0 0,0 0.79004,0 0.79004,0 0,0 0.71143,0 0.71143,0 0,0 0.62402,0 0.62402,0 0,0 0.5293,0 0.5293,0 0,0 0.42578,0 0.42578,0 0,0 0.31396,0 0.31396,0 0,0 0.19483,0 0.19483,0 0,0 0.0669,0 0.0669,0 0,0 -2.90039,-2.1582 -2.90039,-2.1582 z" style="fill:none;stroke:#000000;stroke-width:0.25;stroke-linecap:butt;stroke-linejoin:miter;stroke-miterlimit:4;stroke-dasharray:none;stroke-opacity:1" id="path106"/><path d="m 189.86377,707.48047 c 0,0 -0.19434,0 -0.19434,0 0,0 -0.31445,0 -0.31445,0 0,0 -0.42578,0 -0.42578,0 0,0 -0.52881,0 -0.52881,0 0,0 -0.62451,0 -0.62451,0 0,0 -0.71094,0 -0.71094,0 0,0 -0.79053,0 -0.79053,0 0,0 -0.86035,0 -0.86035,0 0,0 -0.92383,0 -0.92383,0 0,0 -0.97802,0 -0.97802,0 0,0 -1.02442,0 -1.02442,0 0,0 -1.06201,0 -1.06201,0 0,0 -1.09228,0 -1.09228,0 0,0 -1.11377,0 -1.11377,0 0,0 -1.12744,0 -1.12744,0 0,0 -1.13331,0 -1.13331,0 0,0 -1.13037,0 -1.13037,0 0,0 -1.11914,0 -1.11914,0 0,0 -1.10058,0 -1.10058,0 0,0 -1.07276,0 -1.07276,0 0,0 -1.03857,0 -1.03857,0 0,0 -0.99414,0 -0.99414,0 0,0 -0.94238,0 -0.94238,0 0,0 -0.88233,0 -0.88233,0 0,0 -0.81494,0 -0.81494,0 0,0 -0.73877,0 -0.73877,0 0,0 -0.65381,0 -0.65381,0 0,0 -0.56201,0 -0.56201,0 0,0 -0.46094,0 -0.46094,0 0,0 -0.35254,0 -0.35254,0 0,0 -0.23535,0 -0.23535,0 0,0 -0.10986,0 -0.10986,0 0,0 -0.008,-0.002 -0.008,-0.002 0,0 0,-0.0117 0,-0.0117 0,0 0,-0.022 0,-0.022 0,0 0,-0.0303 0,-0.0303 0,0 0,-0.0391 0,-0.0391 0,0 0,-0.0459 0,-0.0459 0,0 0,-0.0532 0,-0.0532 0,0 0,-0.0601 0,-0.0601 0,0 0,-0.0649 0,-0.0649 0,0 0,-0.0703 0,-0.0703 0,0 4.8e-4,-0.0757 4.8e-4,-0.0757 0,0 0,-0.0781 0,-0.0781 0,0 0,-0.0825 0,-0.0825 0,0 0,-0.084 0,-0.084 0,0 0,-0.0869 0,-0.0869 0,0 4.9e-4,-0.0874 4.9e-4,-0.0874 0,0 0,-0.0879 0,-0.0879 0,0 0,-0.0889 0,-0.0889 0,0 4.9e-4,-0.0874 4.9e-4,-0.0874 0,0 0,-0.0864 0,-0.0864 0,0 0,-0.0845 0,-0.0845 0,0 0,-0.082 0,-0.082 0,0 0,-0.0791 0,-0.0791 0,0 0,-0.0747 0,-0.0747 0,0 0,-0.0713 0,-0.0713 0,0 0,-0.0649 0,-0.0649 0,0 0,-0.0596 0,-0.0596 0,0 9.8e-4,-0.0996 9.8e-4,-0.0996 0,0 0,-0.0386 0,-0.0386 0,0 0,-0.0303 0,-0.0303 0,0 0,-0.022 0,-0.022 0,0 0,-0.0117 0,-0.0117 0,0 0.006,-0.002 0.006,-0.002 0,0 0.0977,0 0.0977,0 0,0 0.2085,0 0.2085,0 0,0 0.31299,0 0.31299,0 0,0 0.40918,0 0.40918,0 0,0 0.49804,0 0.49804,0 0,0 0.58008,0 0.58008,0 0,0 0.65527,0 0.65527,0 0,0 0.72315,0 0.72315,0 0,0 0.78271,0 0.78271,0 0,0 0.83692,0 0.83692,0 0,0 0.88134,0 0.88134,0 0,0 0.9209,0 0.9209,0 0,0 0.95215,0 0.95215,0 0,0 0.97608,0 0.97608,0 0,0 0.99316,0 0.99316,0 0,0 1.00293,0 1.00293,0 0,0 1.00439,0 1.00439,0 0,0 1.00049,0 1.00049,0 0,0 0.98877,0 0.98877,0 0,0 0.96875,0 0.96875,0 0,0 0.9419,0 0.9419,0 0,0 0.90869,0 0.90869,0 0,0 0.86767,0 0.86767,0 0,0 0.81983,0 0.81983,0 0,0 0.76318,0 0.76318,0 0,0 0.70117,0 0.70117,0 0,0 0.63086,0 0.63086,0 0,0 0.5542,0 0.5542,0 0,0 0.46924,0 0.46924,0 0,0 0.37744,0 0.37744,0 0,0 0.2793,0 0.2793,0 0,0 0.17236,0 0.17236,0 0,0 0.0586,0 0.0586,0 0,0 0.27539,0.0166 0.27539,0.0166 0,0 0.70166,0.5332 0.70166,0.5332 0,0 0.34082,0.33936 0.34082,0.33936 0,0 0.77148,0.50537 0.77148,0.50537 0,0 0.30176,0.30127 0.30176,0.30127 0,0 0.3833,0.26953 0.3833,0.26953 z" style="fill:#000000;fill-opacity:1;fill-rule:evenodd;stroke:none" id="path108"/><path d="m 189.86377,707.48047 c 0,0 -0.19434,0 -0.19434,0 0,0 -0.31445,0 -0.31445,0 0,0 -0.42578,0 -0.42578,0 0,0 -0.52881,0 -0.52881,0 0,0 -0.62451,0 -0.62451,0 0,0 -0.71094,0 -0.71094,0 0,0 -0.79053,0 -0.79053,0 0,0 -0.86035,0 -0.86035,0 0,0 -0.92383,0 -0.92383,0 0,0 -0.97802,0 -0.97802,0 0,0 -1.02442,0 -1.02442,0 0,0 -1.06201,0 -1.06201,0 0,0 -1.09228,0 -1.09228,0 0,0 -1.11377,0 -1.11377,0 0,0 -1.12744,0 -1.12744,0 0,0 -1.13331,0 -1.13331,0 0,0 -1.13037,0 -1.13037,0 0,0 -1.11914,0 -1.11914,0 0,0 -1.10058,0 -1.10058,0 0,0 -1.07276,0 -1.07276,0 0,0 -1.03857,0 -1.03857,0 0,0 -0.99414,0 -0.99414,0 0,0 -0.94238,0 -0.94238,0 0,0 -0.88233,0 -0.88233,0 0,0 -0.81494,0 -0.81494,0 0,0 -0.73877,0 -0.73877,0 0,0 -0.65381,0 -0.65381,0 0,0 -0.56201,0 -0.56201,0 0,0 -0.46094,0 -0.46094,0 0,0 -0.35254,0 -0.35254,0 0,0 -0.23535,0 -0.23535,0 0,0 -0.10986,0 -0.10986,0 0,0 -0.008,-0.002 -0.008,-0.002 0,0 0,-0.0117 0,-0.0117 0,0 0,-0.022 0,-0.022 0,0 0,-0.0303 0,-0.0303 0,0 0,-0.0391 0,-0.0391 0,0 0,-0.0459 0,-0.0459 0,0 0,-0.0532 0,-0.0532 0,0 0,-0.0601 0,-0.0601 0,0 0,-0.0649 0,-0.0649 0,0 0,-0.0703 0,-0.0703 0,0 4.8e-4,-0.0757 4.8e-4,-0.0757 0,0 0,-0.0781 0,-0.0781 0,0 0,-0.0825 0,-0.0825 0,0 0,-0.084 0,-0.084 0,0 0,-0.0869 0,-0.0869 0,0 4.9e-4,-0.0874 4.9e-4,-0.0874 0,0 0,-0.0879 0,-0.0879 0,0 0,-0.0889 0,-0.0889 0,0 4.9e-4,-0.0874 4.9e-4,-0.0874 0,0 0,-0.0864 0,-0.0864 0,0 0,-0.0845 0,-0.0845 0,0 0,-0.082 0,-0.082 0,0 0,-0.0791 0,-0.0791 0,0 0,-0.0747 0,-0.0747 0,0 0,-0.0713 0,-0.0713 0,0 0,-0.0649 0,-0.0649 0,0 0,-0.0596 0,-0.0596 0,0 9.8e-4,-0.0996 9.8e-4,-0.0996 0,0 0,-0.0386 0,-0.0386 0,0 0,-0.0303 0,-0.0303 0,0 0,-0.022 0,-0.022 0,0 0,-0.0117 0,-0.0117 0,0 0.006,-0.002 0.006,-0.002 0,0 0.0977,0 0.0977,0 0,0 0.2085,0 0.2085,0 0,0 0.31299,0 0.31299,0 0,0 0.40918,0 0.40918,0 0,0 0.49804,0 0.49804,0 0,0 0.58008,0 0.58008,0 0,0 0.65527,0 0.65527,0 0,0 0.72315,0 0.72315,0 0,0 0.78271,0 0.78271,0 0,0 0.83692,0 0.83692,0 0,0 0.88134,0 0.88134,0 0,0 0.9209,0 0.9209,0 0,0 0.95215,0 0.95215,0 0,0 0.97608,0 0.97608,0 0,0 0.99316,0 0.99316,0 0,0 1.00293,0 1.00293,0 0,0 1.00439,0 1.00439,0 0,0 1.00049,0 1.00049,0 0,0 0.98877,0 0.98877,0 0,0 0.96875,0 0.96875,0 0,0 0.9419,0 0.9419,0 0,0 0.90869,0 0.90869,0 0,0 0.86767,0 0.86767,0 0,0 0.81983,0 0.81983,0 0,0 0.76318,0 0.76318,0 0,0 0.70117,0 0.70117,0 0,0 0.63086,0 0.63086,0 0,0 0.5542,0 0.5542,0 0,0 0.46924,0 0.46924,0 0,0 0.37744,0 0.37744,0 0,0 0.2793,0 0.2793,0 0,0 0.17236,0 0.17236,0 0,0 0.0586,0 0.0586,0 0,0 0.27539,0.0166 0.27539,0.0166 0,0 0.70166,0.5332 0.70166,0.5332 0,0 0.34082,0.33936 0.34082,0.33936 0,0 0.77148,0.50537 0.77148,0.50537 0,0 0.30176,0.30127 0.30176,0.30127 0,0 0.3833,0.26953 0.3833,0.26953 z" style="fill:none;stroke:#000000;stroke-width:0.25;stroke-linecap:butt;stroke-linejoin:miter;stroke-miterlimit:4;stroke-dasharray:none;stroke-opacity:1" id="path110"/><path d="m 181.30518,698.61377 c 0,0 -13.84668,0 -13.84668,0 0,0 0,4.17725 0,4.17725 0,0 13.84668,0 13.84668,0 0,0 0,-4.17725 0,-4.17725 z" style="fill:none;stroke:#000000;stroke-width:0.25;stroke-linecap:butt;stroke-linejoin:miter;stroke-miterlimit:4;stroke-dasharray:none;stroke-opacity:1" id="path112"/><path d="m 187.2793,705.76416 c 0,0 0.59521,0.35498 0.59521,0.35498 0,0 0.33057,0.32959 0.33057,0.32959 0,0 0.39502,0.20947 0.39502,0.20947 0,0 0.19385,0.14502 0.19385,0.14502 0,0 0.56054,0.41651 0.56054,0.41651 0,0 0.31494,0.26074 0.31494,0.26074 0,0 0.16504,0.16308 0.16504,0.16308" style="fill:none;stroke:#000000;stroke-width:0.25;stroke-linecap:butt;stroke-linejoin:miter;stroke-miterlimit:4;stroke-dasharray:none;stroke-opacity:1" id="path114"/><path d="m 211.31934,705.51514 c 0,0 0.0264,-0.19239 0.0264,-0.19239 0,0 -0.0957,-0.13574 -0.0957,-0.13574 0,0 -3.67285,0.61279 -3.67285,0.61279" style="fill:none;stroke:#000000;stroke-width:0.25;stroke-linecap:butt;stroke-linejoin:miter;stroke-miterlimit:4;stroke-dasharray:none;stroke-opacity:1" id="path116"/><path d="m 167.4585,702.79102 c 0,0 -2.63184,-0.10791 -2.63184,-0.10791 0,0 0.23535,0.43798 0.23535,0.43798 0,0 -0.30273,-0.73144 -0.30273,-0.73144 0,0 0,-1.87988 0,-1.87988 0,0 0,-0.41846 0,-0.41846 0,0 0.2041,-1.46582 0.2041,-1.46582 0,0 2.49512,-0.0117 2.49512,-0.0117" style="fill:#000000;fill-opacity:1;fill-rule:evenodd;stroke:none" id="path118"/><path d="m 167.4585,702.79102 c 0,0 -2.63184,-0.10791 -2.63184,-0.10791 0,0 0.23535,0.43798 0.23535,0.43798 0,0 -0.30273,-0.73144 -0.30273,-0.73144 0,0 0,-1.87988 0,-1.87988 0,0 0,-0.41846 0,-0.41846 0,0 0.2041,-1.46582 0.2041,-1.46582 0,0 2.49512,-0.0117 2.49512,-0.0117" style="fill:none;stroke:#000000;stroke-width:0.25;stroke-linecap:butt;stroke-linejoin:miter;stroke-miterlimit:4;stroke-dasharray:none;stroke-opacity:1" id="path120"/><path d="m 167.66748,697.28613 c 0,0 1.104,1.32764 1.104,1.32764 0,0 -3.67089,-0.104 -3.67089,-0.104 0,0 0.68945,-0.75831 0.68945,-0.75831 0,0 1.87744,-0.46533 1.87744,-0.46533 z" style="fill:#000000;fill-opacity:1;fill-rule:evenodd;stroke:none" id="path122"/><path d="m 167.66748,697.28613 c 0,0 1.104,1.32764 1.104,1.32764 0,0 -3.67089,-0.104 -3.67089,-0.104 0,0 0.68945,-0.75831 0.68945,-0.75831 0,0 1.87744,-0.46533 1.87744,-0.46533 z" style="fill:none;stroke:#000000;stroke-width:0.25;stroke-linecap:butt;stroke-linejoin:miter;stroke-miterlimit:4;stroke-dasharray:none;stroke-opacity:1" id="path124"/><path d="m 167.66748,697.08545 c 0,0 0,0.20068 0,0.20068 0,0 1.104,1.32764 1.104,1.32764 0,0 10.71338,0 10.71338,0 0,0 -0.65625,-1.5835 -0.65625,-1.5835" style="fill:#000000;fill-opacity:1;fill-rule:evenodd;stroke:none" id="path126"/><path d="m 167.66748,697.08545 c 0,0 0,0.20068 0,0.20068 0,0 1.104,1.32764 1.104,1.32764 0,0 10.71338,0 10.71338,0 0,0 -0.65625,-1.5835 -0.65625,-1.5835" style="fill:none;stroke:#000000;stroke-width:0.25;stroke-linecap:butt;stroke-linejoin:miter;stroke-miterlimit:4;stroke-dasharray:none;stroke-opacity:1" id="path128"/><path d="m 183.85449,698.49951 c 0,0 -4.36963,0.11426 -4.36963,0.11426 0,0 -0.65625,-1.41699 -0.65625,-1.41699 0,0 1.75049,-0.16162 1.75049,-0.16162 0,0 1.71485,0.34277 1.71485,0.34277 0,0 1.19775,0.71387 1.19775,0.71387" style="fill:#000000;fill-opacity:1;fill-rule:evenodd;stroke:none" id="path130"/><path d="m 183.85449,698.49951 c 0,0 -4.36963,0.11426 -4.36963,0.11426 0,0 -0.65625,-1.41699 -0.65625,-1.41699 0,0 1.75049,-0.16162 1.75049,-0.16162 0,0 1.71485,0.34277 1.71485,0.34277 0,0 1.19775,0.71387 1.19775,0.71387" style="fill:none;stroke:#000000;stroke-width:0.25;stroke-linecap:butt;stroke-linejoin:miter;stroke-miterlimit:4;stroke-dasharray:none;stroke-opacity:1" id="path132"/><path d="m 181.41797,702.90381 c 0,0 2.70605,-1.88721 2.70605,-1.88721 0,0 0,-1.65039 0,-1.65039 0,0 -0.34131,-0.61767 -0.34131,-0.61767 0,0 -0.1499,-0.14893 -0.1499,-0.14893 0,0 -1.07422,0 -1.07422,0 0,0 -0.68603,0 -0.68603,0 0,0 -0.56738,0.0893 -0.56738,0.0893 0,0 -0.003,4.21485 -0.003,4.21485 0,0 -9.8e-4,1.54932 -9.8e-4,1.54932 0,0 0.63037,-0.24317 0.63037,-0.24317 0,0 0.78809,-0.25049 0.78809,-0.25049 0,0 0.32959,-0.2041 0.32959,-0.2041 0,0 0.29199,-0.22412 0.29199,-0.22412 0,0 0.41308,-0.42578 0.41308,-0.42578 0,0 0.271,-0.4917 0.271,-0.4917 0,0 0.0913,-0.43311 0.0913,-0.43311 0,0 0,-0.38818 0,-0.38818 0,0 0,-0.47754 0,-0.47754 0,0 0.007,-0.1792 0.007,-0.1792 0,0 -2.70605,1.76807 -2.70605,1.76807 z" style="fill:#000000;fill-opacity:1;fill-rule:evenodd;stroke:none" id="path134"/><path d="m 181.41797,702.90381 c 0,0 2.70605,-1.88721 2.70605,-1.88721 0,0 0,-1.65039 0,-1.65039 0,0 -0.34131,-0.61767 -0.34131,-0.61767 0,0 -0.1499,-0.14893 -0.1499,-0.14893 0,0 -1.07422,0 -1.07422,0 0,0 -0.68603,0 -0.68603,0 0,0 -0.56738,0.0893 -0.56738,0.0893 0,0 -0.003,4.21485 -0.003,4.21485 0,0 -9.8e-4,1.54932 -9.8e-4,1.54932 0,0 0.63037,-0.24317 0.63037,-0.24317 0,0 0.78809,-0.25049 0.78809,-0.25049 0,0 0.32959,-0.2041 0.32959,-0.2041 0,0 0.29199,-0.22412 0.29199,-0.22412 0,0 0.41308,-0.42578 0.41308,-0.42578 0,0 0.271,-0.4917 0.271,-0.4917 0,0 0.0913,-0.43311 0.0913,-0.43311 0,0 0,-0.38818 0,-0.38818 0,0 0,-0.47754 0,-0.47754 0,0 0.007,-0.1792 0.007,-0.1792 0,0 -2.70605,1.76807 -2.70605,1.76807 z" style="fill:none;stroke:#000000;stroke-width:0.25;stroke-linecap:butt;stroke-linejoin:miter;stroke-miterlimit:4;stroke-dasharray:none;stroke-opacity:1" id="path136"/><path d="m 164.94824,702.84521 c 0,0 0.61328,0.7378 0.61328,0.7378 0,0 0.67334,-0.71631 0.67334,-0.71631 0,0 0,-0.12647 0,-0.12647 0,0 -0.95507,-0.17187 -0.95507,-0.17187" style="fill:#000000;fill-opacity:1;fill-rule:evenodd;stroke:none" id="path138"/><path d="m 164.94824,702.84521 c 0,0 0.61328,0.7378 0.61328,0.7378 0,0 0.67334,-0.71631 0.67334,-0.71631 0,0 0,-0.12647 0,-0.12647 0,0 -0.95507,-0.17187 -0.95507,-0.17187" style="fill:none;stroke:#000000;stroke-width:0.25;stroke-linecap:butt;stroke-linejoin:miter;stroke-miterlimit:4;stroke-dasharray:none;stroke-opacity:1" id="path140"/><path d="m 181.18945,702.79102 c 0,0 -2.09228,0 -2.09228,0 0,0 -3.73047,0 -3.73047,0 0,0 -2.32764,0 -2.32764,0 0,0 -1.90967,0 -1.90967,0 0,0 -1.97021,0 -1.97021,0 0,0 -0.35791,0 -0.35791,0 0,0 0,0.70214 0,0.70214 0,0 -0.0249,1.0293 -0.0249,1.0293 0,0 2.20361,0.003 2.20361,0.003 0,0 3.73047,0 3.73047,0 0,0 2.26758,0 2.26758,0 0,0 2.38769,0 2.38769,0 0,0 1.03955,0 1.03955,0 0,0 0.45215,-0.0186 0.45215,-0.0186 0,0 0.44385,-0.0542 0.44385,-0.0542" style="fill:#000000;fill-opacity:1;fill-rule:evenodd;stroke:none" id="path142"/><path d="m 181.18945,702.79102 c 0,0 -2.09228,0 -2.09228,0 0,0 -3.73047,0 -3.73047,0 0,0 -2.32764,0 -2.32764,0 0,0 -1.90967,0 -1.90967,0 0,0 -1.97021,0 -1.97021,0 0,0 -0.35791,0 -0.35791,0 0,0 0,0.70214 0,0.70214 0,0 -0.0249,1.0293 -0.0249,1.0293 0,0 2.20361,0.003 2.20361,0.003 0,0 3.73047,0 3.73047,0 0,0 2.26758,0 2.26758,0 0,0 2.38769,0 2.38769,0 0,0 1.03955,0 1.03955,0 0,0 0.45215,-0.0186 0.45215,-0.0186 0,0 0.44385,-0.0542 0.44385,-0.0542" style="fill:none;stroke:#000000;stroke-width:0.25;stroke-linecap:butt;stroke-linejoin:miter;stroke-miterlimit:4;stroke-dasharray:none;stroke-opacity:1" id="path144"/><path d="m 166.23486,702.8667 c 0,0 0.5376,0 0.5376,0 0,0 0.29785,0 0.29785,0 0,0 0.38819,0 0.38819,0 0,0 0.50732,0 0.50732,0 0,0 0.35791,0 0.35791,0 0,0 0.47754,0.11963 0.47754,0.11963 0,0 0,0.65625 0,0.65625 0,0 0,0.53711 0,0.53711 0,0 -0.0249,0.34277 -0.0249,0.34277 0,0 -0.48975,-0.0278 -0.48975,-0.0278 0,0 -0.78076,-0.11328 -0.78076,-0.11328 0,0 -0.68408,-0.18311 -0.68408,-0.18311 0,0 -0.38282,-0.14209 -0.38282,-0.14209 0,0 -0.48681,-0.23242 -0.48681,-0.23242 0,0 -0.39063,-0.24072 -0.39063,-0.24072" style="fill:#000000;fill-opacity:1;fill-rule:evenodd;stroke:none" id="path146"/><path d="m 166.23486,702.8667 c 0,0 0.5376,0 0.5376,0 0,0 0.29785,0 0.29785,0 0,0 0.38819,0 0.38819,0 0,0 0.50732,0 0.50732,0 0,0 0.35791,0 0.35791,0 0,0 0.47754,0.11963 0.47754,0.11963 0,0 0,0.65625 0,0.65625 0,0 0,0.53711 0,0.53711 0,0 -0.0249,0.34277 -0.0249,0.34277 0,0 -0.48975,-0.0278 -0.48975,-0.0278 0,0 -0.78076,-0.11328 -0.78076,-0.11328 0,0 -0.68408,-0.18311 -0.68408,-0.18311 0,0 -0.38282,-0.14209 -0.38282,-0.14209 0,0 -0.48681,-0.23242 -0.48681,-0.23242 0,0 -0.39063,-0.24072 -0.39063,-0.24072" style="fill:none;stroke:#000000;stroke-width:0.25;stroke-linecap:butt;stroke-linejoin:miter;stroke-miterlimit:4;stroke-dasharray:none;stroke-opacity:1" id="path148"/><path d="m 165.79004,697.75146 c 0,0 0.84521,-0.42382 0.84521,-0.42382 0,0 0.88282,-0.22119 0.88282,-0.22119 0,0 0.14941,0.35888 0.14941,0.35888" style="fill:#000000;fill-opacity:1;fill-rule:evenodd;stroke:none" id="path150"/><path d="m 165.79004,697.75146 c 0,0 0.84521,-0.42382 0.84521,-0.42382 0,0 0.88282,-0.22119 0.88282,-0.22119 0,0 0.14941,0.35888 0.14941,0.35888" style="fill:none;stroke:#000000;stroke-width:0.25;stroke-linecap:butt;stroke-linejoin:miter;stroke-miterlimit:4;stroke-dasharray:none;stroke-opacity:1" id="path152"/><path d="m 188.06641,706.06494 c 0,0 0.99853,0.65137 0.99853,0.65137 0,0 0.68018,0.68066 0.68018,0.68066 0,0 0.18554,0.0835 0.18554,0.0835 0,0 0.002,-0.002 0.002,-0.002 0,0 0.003,-0.007 0.003,-0.007 0,0 0.007,-0.0127 0.007,-0.0127 0,0 0.01,-0.0161 0.01,-0.0161 0,0 0.0122,-0.0215 0.0122,-0.0215 0,0 0.0156,-0.0259 0.0156,-0.0259 0,0 0.0171,-0.0308 0.0171,-0.0308 0,0 0.0205,-0.0342 0.0205,-0.0342 0,0 0.0225,-0.0386 0.0225,-0.0386 0,0 0.0254,-0.043 0.0254,-0.043 0,0 0.0268,-0.0469 0.0268,-0.0469 0,0 0.0293,-0.0503 0.0293,-0.0503 0,0 0.0322,-0.0547 0.0322,-0.0547 0,0 0.0337,-0.0581 0.0337,-0.0581 0,0 0.0361,-0.0615 0.0361,-0.0615 0,0 0.0376,-0.0654 0.0376,-0.0654 0,0 0.04,-0.0679 0.04,-0.0679 0,0 0.042,-0.0723 0.042,-0.0723 0,0 0.0435,-0.0747 0.0435,-0.0747 0,0 0.0459,-0.0781 0.0459,-0.0781 0,0 0.0474,-0.0811 0.0474,-0.0811 0,0 0.0488,-0.084 0.0488,-0.084 0,0 0.0503,-0.0869 0.0503,-0.0869 0,0 0.0522,-0.0894 0.0522,-0.0894 0,0 0.0542,-0.0918 0.0542,-0.0918 0,0 0.0547,-0.0947 0.0547,-0.0947 0,0 0.0566,-0.0967 0.0566,-0.0967 0,0 0.0576,-0.0991 0.0576,-0.0991 0,0 0.0586,-0.10107 0.0586,-0.10107 0,0 0.0606,-0.10401 0.0606,-0.10401 0,0 0.0615,-0.10498 0.0615,-0.10498 0,0 0.0625,-0.10693 0.0625,-0.10693 0,0 0.0635,-0.10938 0.0635,-0.10938 0,0 0.0649,-0.11133 0.0649,-0.11133 0,0 0.0654,-0.11181 0.0654,-0.11181 0,0 0.0669,-0.11377 0.0669,-0.11377 0,0 0.0674,-0.11524 0.0674,-0.11524 0,0 0.0674,-0.1167 0.0674,-0.1167 0,0 0.0684,-0.11767 0.0684,-0.11767 0,0 0.0698,-0.11865 0.0698,-0.11865 0,0 0.0698,-0.12012 0.0698,-0.12012 0,0 0.0708,-0.12109 0.0708,-0.12109 0,0 0.0703,-0.1211 0.0703,-0.1211 0,0 0.0713,-0.12256 0.0713,-0.12256 0,0 0.0718,-0.12304 0.0718,-0.12304 0,0 0.0718,-0.12256 0.0718,-0.12256 0,0 0.0728,-0.12354 0.0728,-0.12354 0,0 0.0723,-0.12402 0.0723,-0.12402 0,0 0.0723,-0.125 0.0723,-0.125 0,0 0.0723,-0.12451 0.0723,-0.12451 0,0 0.0723,-0.12403 0.0723,-0.12403 0,0 0.0732,-0.12402 0.0732,-0.12402 0,0 0.0723,-0.12402 0.0723,-0.12402 0,0 0.0718,-0.12403 0.0718,-0.12403 0,0 0.0723,-0.12255 0.0723,-0.12255 0,0 0.0713,-0.12305 0.0713,-0.12305 0,0 0.14209,-0.24365 0.14209,-0.24365 0,0 0.0708,-0.12159 0.0708,-0.12159 0,0 0.0693,-0.11914 0.0693,-0.11914 0,0 0.0693,-0.11914 0.0693,-0.11914 0,0 0.0688,-0.11816 0.0688,-0.11816 0,0 0.0679,-0.11572 0.0679,-0.11572 0,0 0.0669,-0.11573 0.0669,-0.11573 0,0 0.0669,-0.11377 0.0669,-0.11377 0,0 0.0654,-0.1123 0.0654,-0.1123 0,0 0.0649,-0.11084 0.0649,-0.11084 0,0 0.063,-0.10889 0.063,-0.10889 0,0 0.063,-0.10742 0.063,-0.10742 0,0 0.0615,-0.10498 0.0615,-0.10498 0,0 0.0601,-0.104 0.0601,-0.104 0,0 0.0591,-0.10108 0.0591,-0.10108 0,0 0.0581,-0.0991 0.0581,-0.0991 0,0 0.0562,-0.0967 0.0562,-0.0967 0,0 0.0557,-0.0947 0.0557,-0.0947 0,0 0.0532,-0.0913 0.0532,-0.0913 0,0 0.0522,-0.0898 0.0522,-0.0898 0,0 0.0503,-0.0869 0.0503,-0.0869 0,0 0.0493,-0.084 0.0493,-0.084 0,0 0.0474,-0.0811 0.0474,-0.0811 0,0 0.0449,-0.0776 0.0449,-0.0776 0,0 0.0439,-0.0752 0.0439,-0.0752 0,0 0.042,-0.0723 0.042,-0.0723 0,0 0.0395,-0.0679 0.0395,-0.0679 0,0 0.0381,-0.0654 0.0381,-0.0654 0,0 0.0366,-0.0615 0.0366,-0.0615 0,0 0.0337,-0.0581 0.0337,-0.0581 0,0 0.0317,-0.0547 0.0317,-0.0547 0,0 0.0298,-0.0503 0.0298,-0.0503 0,0 0.0268,-0.0469 0.0268,-0.0469 0,0 0.0249,-0.0425 0.0249,-0.0425 0,0 0.0225,-0.0391 0.0225,-0.0391 0,0 0.0381,-0.0644 0.0381,-0.0644 0,0 0.0146,-0.0259 0.0146,-0.0259 0,0 0.0122,-0.0215 0.0122,-0.0215 0,0 0.0102,-0.0166 0.0102,-0.0166 0,0 0.007,-0.0127 0.007,-0.0127 0,0 0.004,-0.007 0.004,-0.007" style="fill:none;stroke:#000000;stroke-width:0.25;stroke-linecap:butt;stroke-linejoin:miter;stroke-miterlimit:4;stroke-dasharray:none;stroke-opacity:1" id="path154"/><path d="m 194.19775,698.62891 c 0,0 -0.64111,-0.64209 -0.64111,-0.64209 0,0 -0.59766,-0.59717 -0.59766,-0.59717 0,0 -0.70654,0.2583 -0.70654,0.2583 0,0 -0.56592,0.4126 -0.56592,0.4126 0,0 -0.53613,0.53564 -0.53613,0.53564 0,0 -0.39551,0.40723 -0.39551,0.40723 0,0 -0.72656,1.11914 -0.72656,1.11914 0,0 -0.66553,1.07275 -0.66553,1.07275 0,0 -0.4956,0.98145 -0.4956,0.98145 0,0 -0.49024,0.86816 -0.49024,0.86816 0,0 -0.53955,0.95362 -0.53955,0.95362 0,0 -0.39502,0.6997 -0.39502,0.6997 0,0 -0.35302,0.62451 -0.35302,0.62451 0,0 2.8413,2.15772 2.8413,2.15772" style="fill:none;stroke:#000000;stroke-width:0.25;stroke-linecap:butt;stroke-linejoin:miter;stroke-miterlimit:4;stroke-dasharray:none;stroke-opacity:1" id="path156"/><path d="m 187.08936,705.32275 c 0,0 6.09375,-7.70898 6.09375,-7.70898 0,0 0.6123,0.6123 0.6123,0.6123 0,0 0.40234,0.2837 0.40234,0.2837 0,0 0.54395,0.72119 0.54395,0.72119 0,0 -0.11231,0.19336 -0.11231,0.19336 0,0 -0.46386,0.79492 -0.46386,0.79492 0,0 -0.44483,0.76367 -0.44483,0.76367 0,0 -0.45166,0.77393 -0.45166,0.77393 0,0 -0.48828,0.8374 -0.48828,0.8374 0,0 -0.57763,0.99121 -0.57763,0.99121 0,0 -0.64063,1.09668 -0.64063,1.09668 0,0 -0.58789,1.00781 -0.58789,1.00781 0,0 -0.58691,1.00684 -0.58691,1.00684 0,0 -0.34668,0.59472 -0.34668,0.59472 0,0 -0.23047,0.23047 -0.23047,0.23047 0,0 -0.45606,-0.30224 -0.45606,-0.30224 0,0 -0.53564,-0.58399 -0.53564,-0.58399 0,0 -0.94434,-0.5166 -0.94434,-0.5166" style="fill:#000000;fill-opacity:1;fill-rule:evenodd;stroke:none" id="path158"/><path d="m 187.08936,705.32275 c 0,0 6.09375,-7.70898 6.09375,-7.70898 0,0 0.6123,0.6123 0.6123,0.6123 0,0 0.40234,0.2837 0.40234,0.2837 0,0 0.54395,0.72119 0.54395,0.72119 0,0 -0.11231,0.19336 -0.11231,0.19336 0,0 -0.46386,0.79492 -0.46386,0.79492 0,0 -0.44483,0.76367 -0.44483,0.76367 0,0 -0.45166,0.77393 -0.45166,0.77393 0,0 -0.48828,0.8374 -0.48828,0.8374 0,0 -0.57763,0.99121 -0.57763,0.99121 0,0 -0.64063,1.09668 -0.64063,1.09668 0,0 -0.58789,1.00781 -0.58789,1.00781 0,0 -0.58691,1.00684 -0.58691,1.00684 0,0 -0.34668,0.59472 -0.34668,0.59472 0,0 -0.23047,0.23047 -0.23047,0.23047 0,0 -0.45606,-0.30224 -0.45606,-0.30224 0,0 -0.53564,-0.58399 -0.53564,-0.58399 0,0 -0.94434,-0.5166 -0.94434,-0.5166" style="fill:none;stroke:#000000;stroke-width:0.25;stroke-linecap:butt;stroke-linejoin:miter;stroke-miterlimit:4;stroke-dasharray:none;stroke-opacity:1" id="path160"/><path d="m 192.76514,697.61377 c 0,0 -0.5127,0.0342 -0.5127,0.0342 0,0 -1.01221,0.85937 -1.01221,0.85937 0,0 -0.92089,1.167 -0.92089,1.167 0,0 0.37207,0.37207 0.37207,0.37207 0,0 0.43213,0.43261 0.43213,0.43261 0,0 1.0747,0 1.0747,0 0,0 1.13379,-2.26806 1.13379,-2.26806 0,0 0.22461,-0.22412 0.22461,-0.22412 0,0 -0.37353,-0.37305 -0.37353,-0.37305 0,0 -0.22413,-0.22412 -0.22413,-0.22412" style="fill:#000000;fill-opacity:1;fill-rule:evenodd;stroke:none" id="path162"/><path d="m 192.76514,697.61377 c 0,0 -0.5127,0.0342 -0.5127,0.0342 0,0 -1.01221,0.85937 -1.01221,0.85937 0,0 -0.92089,1.167 -0.92089,1.167 0,0 0.37207,0.37207 0.37207,0.37207 0,0 0.43213,0.43261 0.43213,0.43261 0,0 1.0747,0 1.0747,0 0,0 1.13379,-2.26806 1.13379,-2.26806 0,0 0.22461,-0.22412 0.22461,-0.22412 0,0 -0.37353,-0.37305 -0.37353,-0.37305 0,0 -0.22413,-0.22412 -0.22413,-0.22412" style="fill:none;stroke:#000000;stroke-width:0.25;stroke-linecap:butt;stroke-linejoin:miter;stroke-miterlimit:4;stroke-dasharray:none;stroke-opacity:1" id="path164"/><path d="m 191.0332,700.56885 c 0,0 -0.78466,-0.78565 -0.78466,-0.78565 0,0 -0.99415,1.62647 -0.99415,1.62647 0,0 -0.92724,1.72314 -0.92724,1.72314 0,0 -0.48975,0.86573 -0.48975,0.86573 0,0 -0.15722,0.57714 -0.15722,0.57714" style="fill:#000000;fill-opacity:1;fill-rule:evenodd;stroke:none" id="path166"/><path d="m 191.0332,700.56885 c 0,0 -0.78466,-0.78565 -0.78466,-0.78565 0,0 -0.99415,1.62647 -0.99415,1.62647 0,0 -0.92724,1.72314 -0.92724,1.72314 0,0 -0.48975,0.86573 -0.48975,0.86573 0,0 -0.15722,0.57714 -0.15722,0.57714" style="fill:none;stroke:#000000;stroke-width:0.25;stroke-linecap:butt;stroke-linejoin:miter;stroke-miterlimit:4;stroke-dasharray:none;stroke-opacity:1" id="path168"/></g></svg>